<?xml version="1.0" standalone="no"?>
<!DOCTYPE svg PUBLIC "-//W3C//DTD SVG 1.1//EN" "http://www.w3.org/Graphics/SVG/1.1/DTD/svg11.dtd" >
<!--
2013-9-30: Created.
-->
<svg>
<metadata>
Created by iconfont
</metadata>
<defs>

<font id="iconfont" horiz-adv-x="1024" >
  <font-face
    font-family="iconfont"
    font-weight="500"
    font-stretch="normal"
    units-per-em="1024"
    ascent="896"
    descent="-128"
  />
    <missing-glyph />
    
    <glyph glyph-name="icon-test" unicode="&#59059;" d="M512 691.2c-57.6 0-102.4-44.8-102.4-102.4s44.8-102.4 102.4-102.4c57.6 0 102.4 44.8 102.4 102.4S569.6 691.2 512 691.2zM512 896C230.4 896 0 665.6 0 384s230.4-512 512-512 512 230.4 512 512S793.6 896 512 896z m0-921.6C284.8-25.600000000000023 102.4 156.79999999999995 102.4 384 102.4 611.2 284.8 793.6 512 793.6c227.2 0 409.6-182.4 409.6-409.6 0-227.2-182.4-409.6-409.6-409.6zM512 384c-28.8 0-51.2-22.4-51.2-51.2V128c0-28.8 22.4-51.2 51.2-51.2 28.8 0 51.2 22.4 51.2 51.2v204.8c0 28.8-22.4 51.2-51.2 51.2z"  horiz-adv-x="1024" />

    
    <glyph glyph-name="icon-test1" unicode="&#59060;" d="M704 224v-256H64V544h256V800h640v-576h-256zM192 416v-320h384V416H192z m640 256H448v-128h256v-192h128V672z"  horiz-adv-x="1024" />

    
    <glyph glyph-name="icon-test2" unicode="&#59061;" d="M995.2 451.2l-108.8 12.8c-9.6 44.8-28.8 89.6-51.2 128l67.2 86.4c9.6 12.8 9.6 32-3.2 41.6l-51.2 51.2c-12.8 12.8-28.8 12.8-41.6 3.2l-86.4-67.2c-38.4 25.6-80 41.6-128 51.2L579.2 867.2c-3.2 16-16 28.8-32 28.8h-70.4c-16 0-28.8-12.8-32-28.8l-12.8-108.8c-44.8-9.6-89.6-28.8-128-51.2L217.6 774.4c-12.8 9.6-32 9.6-41.6-3.2L124.8 720c-12.8-9.6-12.8-28.8-3.2-41.6l67.2-86.4c-25.6-38.4-41.6-80-51.2-128l-108.8-12.8c-16-3.2-28.8-16-28.8-32v-70.4c0-16 12.8-28.8 28.8-32l108.8-12.8c9.6-44.8 28.8-89.6 51.2-128l-67.2-86.4c-9.6-12.8-9.6-32 3.2-41.6l51.2-51.2c12.8-12.8 28.8-12.8 41.6-3.2l86.4 67.2c38.4-25.6 80-41.6 128-51.2l12.8-108.8c3.2-16 16-28.8 32-28.8h70.4c16 0 28.8 12.8 32 28.8l12.8 108.8c44.8 9.6 89.6 28.8 128 51.2l86.4-67.2c12.8-9.6 32-9.6 41.6 3.2l51.2 51.2c12.8 12.8 12.8 28.8 3.2 41.6l-67.2 86.4c25.6 38.4 41.6 80 51.2 128l108.8 12.8c16 3.2 28.8 16 28.8 32v70.4c0 16-12.8 28.8-28.8 32zM512 256c-70.4 0-128 57.6-128 128s57.6 128 128 128 128-57.6 128-128-57.6-128-128-128z"  horiz-adv-x="1024" />

    
    <glyph glyph-name="icon-test3" unicode="&#59062;" d="M64 448h896v-128H64v128z"  horiz-adv-x="1024" />

    
    <glyph glyph-name="icon-test4" unicode="&#59063;" d="M64 768v-768h896V768H64z m768-640H192V640h640v-512z"  horiz-adv-x="1024" />

    
    <glyph glyph-name="icon-test5" unicode="&#59064;" d="M892.8 649.6L624 384l265.6-265.6c12.8-12.8 19.2-25.6 19.2-51.2 0-35.2-32-67.2-67.2-67.2-19.2 0-35.2 9.6-51.2 19.2l-265.6 265.6L256 19.200000000000045c-12.8-16-25.6-19.2-48-19.2-32 0-64 32-64 67.2 0 19.2 9.6 35.2 19.2 51.2l265.6 265.6-265.6 265.6c-9.6 12.8-19.2 32-19.2 51.2C144 736 176 768 211.2 768c19.2 0 35.2-9.6 51.2-19.2l265.6-265.6 265.6 265.6c16 16 28.8 19.2 51.2 19.2 35.2 0 67.2-32 67.2-67.2 0-19.2-9.6-35.2-19.2-51.2z"  horiz-adv-x="1024" />

    
    <glyph glyph-name="icon-test6" unicode="&#59065;" d="M256 832h768v-128H256zM256 576h768v-128H256zM256 320h768v-128H256zM256 64h768v-128H256zM0 832h128v-128H0zM0 576h128v-128H0zM0 320h128v-128H0zM0 64h128v-128H0z"  horiz-adv-x="1024" />

    
    <glyph glyph-name="icon-test7" unicode="&#59066;" d="M960 672h-256l-192 192H64C28.8 864 0 851.2 0 816v-832C0-51.200000000000045 28.8-96 64-96h896c35.2 0 64 44.8 64 80v640c0 35.2-28.8 48-64 48z m-192-448h-192v-192h-128v192H256v128h192v192h128v-192h192v-128z"  horiz-adv-x="1024" />

    
    <glyph glyph-name="icon-test8" unicode="&#59067;" d="M448 832H64C28.8 832 0 803.2 0 768v-512h512v64h512V640c0 35.2-28.8 64-64 64H512V768c0 35.2-28.8 64-64 64zM576 192H0v-192c0-35.2 28.8-64 64-64h896c35.2 0 64 28.8 64 64v256H576v-64z"  horiz-adv-x="1024" />

    
    <glyph glyph-name="icon-test9" unicode="&#59068;" d="M956.8-64H704l-64 320h384zM665.6 384H1024V592c0 35.2-28.8 48-64 48H576l-128 192H64C28.8 832 0 819.2 0 784v-768C0-19.200000000000045 28.8-64 64-64h384l41.6 297.6C502.4 320 576 384 665.6 384z"  horiz-adv-x="1024" />

    
    <glyph glyph-name="icon-test10" unicode="&#59069;" d="M192 896h448v-192H192zM1024-96V640l-256 256h-64v-256H128V896H32C12.8 896 0 883.2 0 864v-960c0-19.2 12.8-32 32-32h960c19.2 0 32 12.8 32 32zM128 448h768v-448H128V448z"  horiz-adv-x="1024" />

    
    <glyph glyph-name="icon-test11" unicode="&#59070;" d="M512 156.79999999999995V64h92.8l230.4 233.6-92.8 86.4-230.4-227.2z m35.2 0h57.6v-57.6h-57.6v57.6zM192 896h448v-192H192zM1024-96V640l-256 256h-64v-256H128V896H32C12.8 896 0 883.2 0 864v-960c0-19.2 12.8-32 32-32h960c19.2 0 32 12.8 32 32zM128 448h768v-448H128V448z"  horiz-adv-x="1024" />

    
    <glyph glyph-name="icon-test12" unicode="&#59071;" d="M896-128H128c-70.4 0-128 57.6-128 128V768c0 70.4 57.6 128 128 128h768c70.4 0 128-57.6 128-128v-768c0-70.4-57.6-128-128-128zM128 768v-768h768V768H128zM192 64h640l-192 384-192-192-128 64zM576 608a128 96 0 1 1 256 0 128 96 0 1 1-256 0Z"  horiz-adv-x="1024" />

    
    <glyph glyph-name="icon-test13" unicode="&#59072;" d="M998.380968 19.197193999999968L889.583042 127.99512000000004c28.799451 51.199024 57.598902 108.797926 57.598902 172.796706 0 188.796401-159.99695 342.393473-348.793351 342.393473-57.598902 0-111.997865-12.799756-156.797011-38.399268 3.199939-35.199329 3.199939-70.398658 0-102.398048 44.799146 35.199329 99.198109 57.598902 156.797011 57.598902 140.797316 0 255.99512-115.197804 255.99512-255.99512s-115.197804-255.99512-255.99512-255.99512c-76.798536 0-143.997255 35.199329-191.99634 86.398353 3.199939-41.599207 6.399878-76.798536-3.199939-99.198109 0-3.199939-3.199939-6.399878-3.199939-9.599817 57.598902-41.599207 124.797621-63.99878 198.396218-63.99878 63.99878 0 121.597682 15.999695 172.796706 47.999085l108.797926-108.797926c15.999695-15.999695 38.399268-25.599512 60.798841-25.599512 47.999085 0 86.398353 38.399268 86.398353 86.398353-3.199939 19.199634-12.799756 41.599207-28.799451 57.598902zM342.393473 297.59188700000004c0-63.99878 25.599512-124.797621 63.99878-169.596767-3.199939 47.999085-9.599817 105.597987-3.199939 156.797011 6.399878 44.799146 28.799451 121.597682 38.399268 211.195974-60.798841-44.799146-99.198109-115.197804-99.198109-198.396218zM255.99512 297.59188700000004c0 131.197499 73.598597 246.395303 182.396523 303.994205-3.199939 44.799146-15.999695 89.598292-38.399268 134.397438C284.794571 969.579077 86.398353 937.579687 12.799756 703.98414c-41.599207-127.99756 31.99939-319.9939 31.99939-319.9939s31.99939-67.198719 31.99939-159.99695c0-70.398658-35.199329-159.99695 0-223.99573 115.197804-211.195974 259.195059-121.597682 319.9939 22.399573C313.594022 83.19597399999998 255.99512 185.594022 255.99512 297.59188700000004z"  horiz-adv-x="1027" />

    
    <glyph glyph-name="icon-test14" unicode="&#59073;" d="M0 640h256V896H0v-256z m0-128h192v-64H0v-64h128v-64H0v-64h192v-64H0v-64h128v-64H0v-64h192v-64H0v-64h256V576H0v-64zM960 896v-192h-64V896h-64v-128h-64V896h-64v-192h-64V896h-64v-128h-64V896h-64v-192h-64V896h-64v-256h704V896h-64z"  horiz-adv-x="1024" />

    
    <glyph glyph-name="icon-test15" unicode="&#59074;" d="M704 512c70.4 0 128 57.6 128 128s-57.6 128-128 128-128-57.6-128-128 57.6-128 128-128z m192-192H576v-256h320v256zM0 896v-1024h1024V896H0z m256-128c70.4 0 128-57.6 128-128s-57.6-128-128-128-128 57.6-128 128 57.6 128 128 128z m192-704H128v256h320v-256z m512-128H512V832h448v-896z"  horiz-adv-x="1024" />

    
    <glyph glyph-name="icon-test16" unicode="&#59075;" d="M819.2 76.79999999999995V691.2H204.8v-614.4h614.4z m-512 512h409.6v-409.6H307.2V588.8zM0 896v-256l256 256H0z m0-1024h256l-256 256v-256zM768 896l256-256V896h-256z m256-1024v256l-256-256h256z"  horiz-adv-x="1024" />

    
    <glyph glyph-name="icon-test17" unicode="&#59076;" d="M256 128h512V640H256v-512z m102.4 409.6h307.2v-307.2h-307.2v307.2zM0 579.2v-390.4l204.8 185.6zM819.2 374.4l204.8-185.6V579.2zM316.8-128h390.4l-185.6 204.8zM521.6 691.2L707.2 896H316.8z"  horiz-adv-x="1024" />

    
    <glyph glyph-name="icon-test18" unicode="&#59077;" d="M576 896v-1024h448L576 896z m-128-1024V896L0-128h448z m-51.2 57.6H83.2l313.6 716.8v-716.8z"  horiz-adv-x="1024" />

    
    <glyph glyph-name="icon-test19" unicode="&#59078;" d="M121.6 393.6c32 0 57.6-25.6 57.6-60.8 0-188.8 147.2-342.4 329.6-342.4 182.4 0 329.6 153.6 329.6 342.4 0 188.8-147.2 342.4-329.6 342.4V576L278.4 736 512 896v-99.2c246.4 0 448-208 448-460.8S758.4-128 512-128 64 80 64 332.79999999999995c0 35.2 25.6 60.8 57.6 60.8"  horiz-adv-x="1024" />

    
    <glyph glyph-name="icon-test20" unicode="&#59079;" d="M0 448h1024V896L0 448z m1024-128H0l1024-448V320z m-57.6-51.2v-313.6L249.6 268.79999999999995h716.8z"  horiz-adv-x="1024" />

    
    <glyph glyph-name="icon-test21" unicode="&#59080;" d="M902.4 393.6c-32 0-57.6-25.6-57.6-60.8 0-188.8-147.2-342.4-329.6-342.4-182.4 0-329.6 153.6-329.6 342.4 0 188.8 147.2 342.4 329.6 342.4V576l233.6 160L512 896v-99.2C265.6 796.8 64 588.8 64 332.79999999999995S265.6-128 512-128s448 208 448 460.8c0 35.2-25.6 60.8-57.6 60.8"  horiz-adv-x="1024" />

    
    <glyph glyph-name="icon-test22" unicode="&#59081;" d="M512 448c-35.2 0-64-28.8-64-64s28.8-64 64-64 64 28.8 64 64-28.8 64-64 64z m0 448c-70.4 0-140.8-16-201.6-41.6C278.4 880 236.8 896 192 896 86.4 896 0 809.6 0 704c0-44.8 16-86.4 41.6-118.4C16 524.8 0 454.4 0 384c0-281.6 230.4-512 512-512s512 230.4 512 512S793.6 896 512 896z m0-896C300.8 0 128 172.79999999999995 128 384c0 48 9.6 89.6 22.4 131.2 16-3.2 28.8-3.2 41.6-3.2 105.6 0 192 86.4 192 192 0 12.8 0 25.6-3.2 41.6 41.6 12.8 83.2 22.4 131.2 22.4 211.2 0 384-172.8 384-384s-172.8-384-384-384z"  horiz-adv-x="1024" />

    
    <glyph glyph-name="icon-test23" unicode="&#59082;" d="M713.474079-2.6383509999999433c-89.544035-89.544035-207.870081-131.118051-326.196128-124.722049l6.396003 105.534041c86.346034-6.396002 179.08807 25.58401 246.246096 92.742037 124.722049 124.722049 124.722049 326.196127 0 450.918176-60.762024 60.762024-143.910056 92.742036-223.860087 92.742036v-169.494066l-223.860088 223.860087 223.860088 223.860088v-175.890069c108.732042 0 217.464085-41.574016 300.612117-124.722049 159.900062-159.900062 159.900062-428.532167-3.198001-594.828232z"  horiz-adv-x="1024" />

    
    <glyph glyph-name="icon-test24" unicode="&#59083;" d="M768 448V768h64V896H192v-128h64v-320H192c-35.2 0-64-28.8-64-64v-64h768v64c0 35.2-28.8 64-64 64h-64zM448 256h128v-384h-128z"  horiz-adv-x="1024" />

    
    <glyph glyph-name="icon-test25" unicode="&#59084;" d="M310.525921-2.6383509999999433c89.544035-89.544035 207.870081-131.118051 326.196128-124.722049l-6.396003 105.534041c-86.346034-6.396002-179.08807 25.58401-246.246096 92.742037-124.722049 124.722049-124.722049 326.196127 0 450.918176 60.762024 60.762024 143.910056 92.742036 223.860087 92.742036v-169.494066l223.860088 223.860087-223.860088 223.860088v-175.890069c-108.732042 0-217.464085-41.574016-300.612117-124.722049-159.900062-159.900062-159.900062-428.532167 3.198001-594.828232z"  horiz-adv-x="1024" />

    
    <glyph glyph-name="icon-test26" unicode="&#59085;" d="M1007.936 668.2239999999999l-610.208-613.44c-9.6-9.632-22.432-16-41.664-16-19.264 0-28.864 6.368-41.696 16L16 359.616c-6.432 9.6-16.032 25.632-16.032 41.664 0 28.832 25.632 54.464 54.496 54.464 16 0 28.8-6.4 41.664-16.032l263.136-263.136L927.808 748.352c12.832 6.432 25.632 12.832 41.664 12.832 28.864 0 54.496-25.632 54.496-54.496 0-12.832-6.432-28.864-16.032-38.464z"  horiz-adv-x="1024" />

    
    <glyph glyph-name="icon-test27" unicode="&#59086;" d="M319.970003 575.934006V895.904009H191.982002v-191.982002H0v-127.988001h191.982002v-511.952004h447.958004v127.988001H319.970003zM831.922007 703.922007H383.964003v-127.988001h319.970003v-703.934006h127.988001v191.982002h191.982002v127.988001h-191.982002V575.934006zM978.56426 896l45.275755-45.243758-588.104865-588.48883-45.243759 45.211762z"  horiz-adv-x="1024" />

    
    <glyph glyph-name="icon-test28" unicode="&#59087;" d="M319.980001 575.956003V895.936004H191.988001v-191.988001H0v-127.992h191.988001v-511.968002h447.972001v127.992H319.980001zM831.948003 703.948003H383.976001v-127.992h319.980002v-703.956003h127.992v191.988001h191.988001v127.992h-191.988001V575.956003zM0 383.96800199999996h127.992v-511.968002H0zM0-0.008000000000038199h511.968002v-127.992H0zM978.56284 896l45.27717-45.213174-588.123242-588.507218-45.245172 45.245172z"  horiz-adv-x="1024" />

    
    <glyph glyph-name="icon-test29" unicode="&#59088;" d="M352.112221-64.04488800000001h63.955112v-63.955112h191.865334v63.955112h63.955112v127.910223H352.112221zM435.253866 888.886273C300.948132 860.106473 192.224442 748.185028 166.642398 613.879293c-28.7798-150.294512 38.373067-287.798002 150.294512-361.34638 15.988778-12.791022 28.7798-28.7798 28.7798-51.164089V127.82044599999995h319.775558v67.152867c0 19.186533 12.791022 38.373067 28.7798 47.966334C796.600246 303.697003 863.753113 415.618448 863.753113 543.528671 863.753113 760.97605 662.294512 933.654851 435.253866 888.886273zM384.089777 511.551115c0-35.175311-28.7798-63.955112-63.955112-63.955111s-63.955112 28.7798-63.955111 63.955111V639.4613380000001c0 35.175311 28.7798 63.955112 63.955111 63.955112s63.955112-28.7798 63.955112-63.955112v-127.910223z"  horiz-adv-x="1024" />

    
    <glyph glyph-name="icon-test30" unicode="&#59089;" d="M768 896l256-256-256-256zM0 704h768v-128H0zM256 384l-256-256 256-256zM256 192h768v-128H256z"  horiz-adv-x="1024" />

    
    <glyph glyph-name="icon-test31" unicode="&#59090;" d="M192 896h448v-192H192zM1024-96V640l-256 256h-64v-256H128V896H32C12.8 896 0 883.2 0 864v-960c0-19.2 12.8-32 32-32h960c19.2 0 32 12.8 32 32zM128 448h768v-448H128V448zM576 192h256v-128h-256z"  horiz-adv-x="1024" />

    
    <glyph glyph-name="icon-test32" unicode="&#59091;" d="M192 832h832v-128H192zM192 576h512v-128H192zM192 320h832v-128H192zM192 64h512v-128H192zM0 832h128v-896H0z"  horiz-adv-x="1024" />

    
    <glyph glyph-name="icon-test33" unicode="&#59092;" d="M864 896c89.6 0 160-70.4 160-160 0-35.2-12.8-70.4-32-96l-64-64-224 224 64 64c25.6 19.2 60.8 32 96 32zM64 160l-64-288 288 64 592 592-224 224L64 160z m652.8 371.2l-448-448-54.4 54.4 448 448 54.4-54.4z"  horiz-adv-x="1024" />

    
    <glyph glyph-name="icon-test34" unicode="&#59093;" d="M64 128h128v-128H64zM256 192h128v-256H256zM448 128h512v-128H448zM64 768h192v-128H64zM320 832h128v-256h-128zM512 768h448v-128H512zM64 448h512v-128H64zM640 512h128v-256h-128zM832 448h128v-128h-128z"  horiz-adv-x="1024" />

    
    <glyph glyph-name="icon-test35" unicode="&#59094;" d="M960-64H64c-35.2 0-64 28.8-64 64V768c0 35.2 28.8 64 64 64h896c35.2 0 64-28.8 64-64v-768c0-35.2-28.8-64-64-64zM128 64h768V704H128v-640zM608 608l-128-128 160-160h-64l-192 192-192-192v-192h640v256z"  horiz-adv-x="1024" />

    
    <glyph glyph-name="icon-test36" unicode="&#59095;" d="M0 896v-1024h1024V896H0z m102.4-102.4h256v-256h-256v256z m0-307.2h256v-204.8h-256v204.8z m0-512v256h256v-256h-256z m512 0h-204.8v256h204.8v-256z m0 307.2h-204.8v204.8h204.8v-204.8z m0 256h-204.8v256h204.8v-256z m307.2-563.2h-256v256h256v-256z m0 307.2h-256v204.8h256v-204.8z m0 256h-256v256h256v-256z"  horiz-adv-x="1024" />

    
    <glyph glyph-name="icon-test37" unicode="&#59096;" d="M768-128H64c-35.2 0-64 28.8-64 64V640c0 35.2 28.8 64 64 64h704c35.2 0 64-28.8 64-64v-704c0-35.2-28.8-64-64-64zM128 0h576V576H128v-576zM64 64l128 128 64-64 256 256 256-256v-192H64zM1024 128h-128V768H256V896h704c35.2 0 64-28.8 64-64v-704z"  horiz-adv-x="1024" />

    
    <glyph glyph-name="icon-test38" unicode="&#59097;" d="M960 672h-256l-192 192H64C28.8 864 0 851.2 0 816v-832C0-51.200000000000045 28.8-96 64-96h896c35.2 0 64 44.8 64 80v640c0 35.2-28.8 48-64 48z"  horiz-adv-x="1024" />

    
    <glyph glyph-name="icon-test39" unicode="&#59098;" d="M896 576c-35.2 0-64-28.8-64-64v-64h-64v96c0 35.2-28.8 64-64 64s-64-28.8-64-64v-96h-64v128c0 35.2-28.8 64-64 64s-64-28.8-64-64v-128h-64V832c0 35.2-28.8 64-64 64S256 867.2 256 832v-512H192v192c0 35.2-28.8 64-64 64s-64-28.8-64-64v-256l19.2-64C137.6 6.399999999999977 310.4-128 512-128c201.6 0 374.4 134.4 428.8 320l19.2 64v256c0 35.2-28.8 64-64 64z"  horiz-adv-x="1024" />

    
    <glyph glyph-name="icon-test40" unicode="&#59099;" d="M937.632 335.84000000000003H560.192v-380.608c0-28.832-22.368-51.232-51.136-51.232a50.56 50.56 0 0 0-51.264 51.232V335.84000000000003H83.2c-28.768 0-51.2 22.336-51.2 51.136s22.4 51.2 51.2 51.2h374.624V812.768c0 29.312 19.232 51.2 48.032 51.2 28.768 0 54.336-22.432 54.336-51.2v-374.592H940.8c28.8 0 51.2-25.6 51.2-54.432a55.232 55.232 0 0 0-54.368-47.904z"  horiz-adv-x="1024" />

    
    <glyph glyph-name="icon-test41" unicode="&#59100;" d="M704 896H320v-64H128c-35.2 0-64-28.8-64-64v-64h896V768c0 35.2-28.8 64-64 64h-192V896zM128 576v-640c0-35.2 28.8-64 64-64h640c35.2 0 64 28.8 64 64V640H128v-64z m128-576V512h128v-512H256z m192 0V512h128v-512h-128z m320 0h-128V512h128v-512z"  horiz-adv-x="1024" />

    
    <glyph glyph-name="icon-test42" unicode="&#59101;" d="M464.000915 735.98353C342.403233 969.579077 140.807076 937.579687 64.00854 703.98414 22.409333 575.98658 96.00793 383.99024 96.00793 383.99024s31.99939-67.198719 31.99939-159.99695c0-70.398658-35.199329-159.99695 0-223.99573 121.597682-214.395913 271.994815-118.397743 332.793656 31.99939 22.399573 51.199024-12.799756 159.99695 0 255.99512 12.799756 76.798536 89.598292 281.594632 3.199939 447.99146z m467.191094-451.191399c9.599817 79.998475 86.398353 281.594632 0 447.99146-89.598292 172.796706-223.99573 201.596157-316.793961 111.997865 28.799451-25.599512 57.598902-63.99878 83.198414-111.997865 86.398353-166.396828 9.599817-367.992985 0-447.99146-12.799756-95.99817 22.399573-204.796096 0-255.99512-15.999695-35.199329-35.199329-67.198719-57.598902-92.798231 111.997865-127.99756 236.795486-41.599207 291.194449 92.798231 22.399573 51.199024-9.599817 159.99695 0 255.99512z"  horiz-adv-x="1024" />

    
    <glyph glyph-name="icon-test43" unicode="&#59102;" d="M832 896l192-198.4-192-185.6zM320 512l-128-128V640c0 70.4 57.6 128 128 128h512v-128H320v-128zM192-128l-192 198.4L192 256zM704 0H192v128h512v128l128 128v-256c0-70.4-57.6-128-128-128z"  horiz-adv-x="1024" />

    
    <glyph glyph-name="icon-test44" unicode="&#59103;" d="M768 345.6L470.4 640H0v-768h768V345.6zM640 0H128V512h256v-256h256v-256zM192 896v-192h128V768h320v-256h256v-320h-64v-128h192V601.6L726.4 896z"  horiz-adv-x="1024" />

    
    <glyph glyph-name="icon-test45" unicode="&#59104;" d="M1024 380.79999999999995v-3.2c0-9.6-6.4-16-9.6-22.4-9.6-12.8-22.4-25.6-35.2-38.4-64-64-137.6-121.6-217.6-163.2-51.2-25.6-105.6-48-163.2-57.6-64-12.8-124.8-9.6-185.6 3.2-108.8 22.4-204.8 80-291.2 150.4-38.4 32-76.8 67.2-112 105.6-12.8 16-12.8 38.4 0 54.4s22.4 28.8 35.2 38.4c64 64 137.6 121.6 217.6 163.2C313.6 640 368 662.4 425.6 672c64 12.8 124.8 9.6 185.6-3.2 108.8-22.4 204.8-80 291.2-150.4 38.4-32 76.8-67.2 112-105.6 6.4-6.4 9.6-12.8 9.6-22.4v-9.6c0 3.2 0 3.2 0 0zM512 582.4c-105.6 0-192-86.4-192-192s86.4-192 192-192 192 86.4 192 192-86.4 192-192 192z m0-288c-54.4 0-96 41.6-96 96s41.6 96 96 96 96-41.6 96-96-41.6-96-96-96z"  horiz-adv-x="1024" />

    
    <glyph glyph-name="icon-test46" unicode="&#59105;" d="M342.4-128L0 214.39999999999998 681.6 896 1024 553.6 342.4-128z m147.2 716.8l102.4-102.4-57.6-57.6-102.4 102.4-320-320 227.2-227.2 569.6 569.6-227.2 227.2-192-192z m67.2 67.2l57.6 57.6 147.2-147.2-57.6-57.6-147.2 147.2z m-102.4-396.8l-147.2 147.2 57.6 57.6 147.2-147.2-57.6-57.6z m-169.6-80l-102.4 102.4 57.6 57.6 102.4-102.4-57.6-57.6z"  horiz-adv-x="1024" />

    
    <glyph glyph-name="icon-test47" unicode="&#59106;" d="M1024 380.79999999999995v-3.2c0-9.6-6.4-16-9.6-22.4-9.6-12.8-22.4-25.6-35.2-38.4-64-64-137.6-121.6-217.6-163.2-51.2-25.6-105.6-48-163.2-57.6-64-12.8-124.8-9.6-185.6 3.2-48 9.6-96 28.8-140.8 51.2l128 83.2c32-22.4 70.4-35.2 112-35.2 105.6 0 192 86.4 192 192 0 12.8-3.2 28.8-3.2 41.6l169.6 112c12.8-9.6 22.4-16 32-25.6 38.4-32 76.8-67.2 112-105.6 6.4-6.4 9.6-12.8 9.6-22.4v-9.6c0 3.2 0 3.2 0 0z m-512-86.4c-6.4 0-12.8 0-19.2 3.2l112 73.6c-9.6-41.6-48-76.8-92.8-76.8zM934.4 636.8l-832-544c-3.2-3.2-9.6-3.2-12.8-3.2-12.8 0-25.6 9.6-25.6 25.6 0 9.6 3.2 16 9.6 19.2l832 544c3.2 3.2 9.6 3.2 12.8 3.2 12.8 0 25.6-9.6 25.6-25.6 0-9.6-3.2-16-9.6-19.2zM512 486.4c9.6 0 19.2 0 25.6-3.2L416 403.2c6.4 48 48 83.2 96 83.2z m115.2 57.6c-32 25.6-73.6 38.4-115.2 38.4-105.6 0-192-86.4-192-192 0-16 3.2-32 6.4-48L160 230.39999999999998l-9.6-6.4c-9.6 6.4-19.2 16-28.8 22.4-38.4 32-76.8 67.2-112 105.6-12.8 16-12.8 38.4 0 54.4 12.8 19.2 22.4 32 35.2 41.6 64 64 137.6 121.6 217.6 163.2C313.6 640 368 662.4 425.6 672c64 12.8 124.8 9.6 185.6-3.2 44.8-9.6 89.6-25.6 134.4-48l-9.6-6.4-108.8-70.4z"  horiz-adv-x="1024" />

    
    <glyph glyph-name="icon-test48" unicode="&#59107;" d="M1024 896L512 384V896L0 384l512-512V384l512-512z"  horiz-adv-x="1024" />

    
    <glyph glyph-name="icon-test49" unicode="&#59108;" d="M512 640C230.4 640 0 396.736 0 115.26400000000001h1024C1024 396.736 793.6 640 512 640zM102.4 294.4l166.4-98.144L311.456 268.79999999999995l-179.2 102.432c25.6 51.168 64 93.856 106.656 128l102.4-179.2 72.544 42.656L307.2 546.1120000000001c46.912 25.568 98.112 38.432 153.6 46.912V186.55999999999995h-384c8.544 42.72 17.088 69.44 25.6 107.84z m452.256-107.808V593.056c55.456-4.256 106.688-21.344 157.92-46.912l-106.688-183.456L678.4 320l102.336 179.2c42.688-34.144 81.12-81.088 106.688-128l-174.944-102.464 42.688-72.544 166.368 93.92c12.8-38.368 17.056-60.832 17.056-103.52H554.656z"  horiz-adv-x="1024" />

    
    <glyph glyph-name="icon-test50" unicode="&#59109;" d="M0-128l512 512v-512l512 512L512 896v-512L0 896z"  horiz-adv-x="1024" />

    
    <glyph glyph-name="icon-test51" unicode="&#59110;" d="M48 684.8l192 192c12.8 12.8 25.6 19.2 44.8 19.2h576C896 896 928 867.2 928 832v-192h-128V768H352v-192H160v-576h64v-128H92.8C57.6-128 32-99.20000000000005 32-64V640c0 16 3.2 32 16 44.8zM288 64v-192h188.8L992 384l-195.2 192L288 64z m64 0h128v-128h-128v128z"  horiz-adv-x="1024" />

    
    <glyph glyph-name="icon-test52" unicode="&#59111;" d="M454.4 640V857.6c3.2 9.6 0 19.2-9.6 28.8-16 12.8-38.4 12.8-54.4 0L9.6 486.4c-6.4-9.6-9.6-19.2-9.6-28.8 0-9.6 3.2-19.2 12.8-28.8l374.4-400c6.4-6.4 16-12.8 28.8-12.8s22.4 6.4 28.8 12.8c6.4 6.4 9.6 19.2 9.6 28.8v217.6c249.6 0 476.8-176 521.6-403.2 32 67.2 48 140.8 48 217.6C1024 393.6 768 640 454.4 640z m38.4-291.2c-25.6 0-115.2-3.2-115.2-3.2v-195.2l-291.2 307.2 291.2 307.2v-198.4h115.2c268.8-9.6 454.4-300.8 454.4-438.4-83.2 102.4-297.6 220.8-454.4 220.8z"  horiz-adv-x="1024" />

    
    <glyph glyph-name="icon-test53" unicode="&#59112;" d="M976 288v-96c0-25.6-22.4-48-48-48H48C22.4 144 0 166.39999999999998 0 192V576c0 25.6 22.4 48 48 48H928c25.6 0 48-22.4 48-48v-96c25.6 0 48-22.4 48-48v-96c0-25.6-22.4-48-48-48z m-96 48v192H96v-288h784v96zM352 288H144v192H352v-192z"  horiz-adv-x="1024" />

    
    <glyph glyph-name="icon-test54" unicode="&#59113;" d="M976 288v-96c0-25.6-22.4-48-48-48H48C22.4 144 0 166.39999999999998 0 192V576c0 25.6 22.4 48 48 48H928c25.6 0 48-22.4 48-48v-96c25.6 0 48-22.4 48-48v-96c0-25.6-22.4-48-48-48z m-96 240H96v-288h784v288z"  horiz-adv-x="1024" />

    
    <glyph glyph-name="icon-test55" unicode="&#59114;" d="M976 288v-96c0-25.6-22.4-48-48-48H48C22.4 144 0 166.39999999999998 0 192V576c0 25.6 22.4 48 48 48H928c25.6 0 48-22.4 48-48v-96c25.6 0 48-22.4 48-48v-96c0-25.6-22.4-48-48-48z m-96 48v192H96v-288h784v96z m-288-48h-448v192h448v-192z"  horiz-adv-x="1024" />

    
    <glyph glyph-name="icon-test56" unicode="&#59115;" d="M976 288v-96c0-25.6-22.4-48-48-48H48C22.4 144 0 166.39999999999998 0 192V576c0 25.6 22.4 48 48 48H928c25.6 0 48-22.4 48-48v-96c25.6 0 48-22.4 48-48v-96c0-25.6-22.4-48-48-48z m-96 48v192H96v-288h784v96zM832 288H144v192H832v-192z"  horiz-adv-x="1024" />

    
    <glyph glyph-name="icon-test57" unicode="&#59116;" d="M937.6 41.60000000000002H1024V-128h-86.4v86.4h-86.4V-128H768v172.8H937.6z m-256 0V-128h-86.4v256h86.4v86.4h-86.4v86.4H768v-86.4h86.4v83.2H1024v-86.4h-86.4v-128h-86.4V128H768v-86.4h-86.4zM598.4 896H1024v-425.6H598.4V896z m64-361.6H960V832h-297.6v-297.6z m64 233.6H896v-169.6h-169.6V768zM0 297.6h425.6V-128H0V297.6zM64-64h297.6v297.6H64V-64z m64 233.6h169.6V0H128v169.6zM0 896h425.6v-425.6H0V896z m64-361.6h297.6V832H64v-297.6zM128 768h169.6v-169.6H128V768z"  horiz-adv-x="1024" />

    
    <glyph glyph-name="icon-test58" unicode="&#59117;" d="M976 83.20000000000005h-313.6V0l67.2-67.2v-16H297.6v16l67.2 67.2v83.2H48c-28.8 0-48 22.4-48 51.2v672c0 25.6 22.4 48 48 48h924.8c28.8 0 51.2-22.4 51.2-51.2v-672c0-25.6-22.4-48-48-48zM99.232 755.168v-505.696h828.896V755.168"  horiz-adv-x="1024" />

    
    <glyph glyph-name="icon-test59" unicode="&#59118;" d="M579.2 896L223.968 300.928h284.864L377.6-128l422.272 624H476.832L579.2 896z"  horiz-adv-x="1024" />

    
    <glyph glyph-name="icon-test60" unicode="&#59119;" d="M665.6 896h-307.2v-240h307.2V896z m-204.8-204.8h-67.2V726.4h67.2v-35.2z m169.6 0h-67.2V726.4h67.2v-35.2z m-233.6-480h-3.2l-32 3.2v-3.2c6.4 0 12.8-3.2 19.2-3.2 3.2 3.2 9.6 3.2 16 3.2z m304 412.8H323.2S256 627.2 256 556.8v-579.2c0-57.6 44.8-102.4 102.4-102.4h307.2c57.6 0 102.4 44.8 102.4 102.4v576c0 57.6-67.2 70.4-67.2 70.4z m0-342.4h-32v-67.2h-137.6v-70.4h-9.6c22.4-6.4 41.6-25.6 41.6-51.2 0-28.8-22.4-51.2-51.2-51.2s-51.2 22.4-51.2 51.2c0 25.6 16 44.8 41.6 51.2h-6.4v35.2h-137.6v35.2c-19.2 6.4-35.2 19.2-35.2 44.8 0 32 19.2 57.6 51.2 57.6s51.2-25.6 51.2-57.6c0-25.6-12.8-38.4-32-44.8h99.2V352h-35.2l51.2 70.4 54.4-70.4h-35.2v-99.2h99.2v32h-35.2V352h102.4v-70.4z m-201.6-137.6h22.4-22.4z"  horiz-adv-x="1024" />

    
    <glyph glyph-name="icon-test61" unicode="&#59120;" d="M512-128C252.8-128 44.8 80 44.8 336c0 195.2 118.4 361.6 288 428.8 6.4 3.2 12.8 3.2 19.2 3.2 25.6 0 48-22.4 48-48 0-22.4-12.8-38.4-32-44.8-131.2-57.6-224-185.6-224-339.2C140.8 131.20000000000005 307.2-32 512-32s371.2 163.2 371.2 368c0 153.6-92.8 281.6-224 339.2-19.2 6.4-32 25.6-32 44.8-3.2 25.6 19.2 48 44.8 48 6.4 0 9.6 0 16-3.2 169.6-70.4 288-236.8 288-428.8 3.2-256-204.8-464-464-464z m0 496c-25.6 0-48 22.4-48 48V848c0 25.6 22.4 48 48 48s48-22.4 48-48V416c0-25.6-22.4-48-48-48z"  horiz-adv-x="1024" />

    
    <glyph glyph-name="icon-test62" unicode="&#59121;" d="M976 0h-928C22.4 0 0 19.200000000000045 0 44.799999999999955V537.6h1024v-492.8c0-25.6-22.4-44.8-48-44.8zM0 723.2C0 748.8 22.4 768 48 768H288l96-92.8h592c25.6 0 48-19.2 48-44.8v-44.8H0V723.2z"  horiz-adv-x="1024" />

    
    <glyph glyph-name="icon-test63" unicode="&#59122;" d="M1011.2 483.2L633.6 883.2c-16 12.8-38.4 12.8-54.4 0-6.4-6.4-9.6-19.2-9.6-28.8V640C256 640 0 393.6 0 89.60000000000002c0-76.8 16-150.4 48-217.6 44.8 227.2 272 403.2 521.6 403.2v-214.4c-3.2-9.6 0-19.2 9.6-28.8 9.6-9.6 19.2-12.8 28.8-12.8 12.8 0 22.4 3.2 28.8 12.8l374.4 393.6c6.4 9.6 9.6 19.2 9.6 28.8 3.2 9.6 0 22.4-9.6 28.8zM646.4 150.39999999999998v195.2s-89.6 3.2-115.2 3.2c-156.8 0-374.4-118.4-454.4-220.8 0 137.6 185.6 432 454.4 438.4h115.2V764.8l291.2-307.2-291.2-307.2z"  horiz-adv-x="1024" />

    
    <glyph glyph-name="icon-test64" unicode="&#59123;" d="M892.8 284.79999999999995L704 576l-128-163.2-64 64-192-224L256 320l-128-192h764.8v156.8zM960 768H64C25.6 768 0 742.4 0 704v-640c0-32 32-64 64-64h896c32 0 64 35.2 64 64V704c0 32-32 64-64 64z m-32-672H96V672h832v-576zM288 416c51.2 0 96 41.6 96 92.8 0 51.2-44.8 96-96 96S192 563.2 192 512c0-51.2 44.8-96 96-96z"  horiz-adv-x="1024" />

    
    <glyph glyph-name="icon-test65" unicode="&#59124;" d="M112.192 135.96799999999996c-25.6 0-48 22.4-48 48 0 12.768 3.232 22.4 12.8 32L477.024 616.0319999999999c9.6 9.568 22.4 16 35.2 16 12.8 0 25.6-6.432 35.232-16l399.552-400.064c6.368-6.4 12.8-19.232 12.8-32 0-25.6-22.432-48-48-48-12.8 0-22.432 3.232-32 12.768L512.224 516.832l-364.8-364.864c-6.432-9.6-19.232-16-35.232-16z"  horiz-adv-x="1024" />

    
    <glyph glyph-name="icon-test66" unicode="&#59125;" d="M147.392 616.0319999999999l364.8-364.864L879.808 619.232c9.568 9.6 19.2 12.8 32 12.8 25.568 0 48-22.4 48-48 0-12.8-6.432-25.6-12.8-32L547.424 151.96799999999996c-9.632-9.568-22.4-16-35.232-16-12.768 0-25.6 6.432-35.2 16l-400 400.064c-9.6 9.6-12.8 19.2-12.8 32 0 25.6 22.4 48 48 48 16 0 28.8-6.4 35.2-16z"  horiz-adv-x="1024" />

    
    <glyph glyph-name="icon-test67" unicode="&#59126;" d="M279.968 19.392000000000053l364.864 364.8L276.768 751.808c-9.6 9.568-12.8 19.2-12.8 32 0 25.568 22.4 48 48 48 12.8 0 25.6-6.432 32-12.8l400.064-399.552c9.568-9.632 16-22.4 16-35.232 0-12.768-6.432-25.6-16-35.2L343.968-51.00800000000004c-9.6-9.6-19.2-12.8-32-12.8-25.6 0-48 22.4-48 48 0 16 6.4 28.8 16 35.2z"  horiz-adv-x="1024" />

    
    <glyph glyph-name="icon-test68" unicode="&#59127;" d="M760.032-15.807999999999993c0-25.6-22.4-48-48-48-12.768 0-22.4 3.232-32 12.8L279.968 349.024c-9.568 9.6-16 22.4-16 35.2 0 12.8 6.432 25.6 16 35.232L680.032 819.008c6.4 6.368 19.232 12.8 32 12.8 25.6 0 48-22.432 48-48 0-12.8-3.232-22.432-12.768-32L379.168 384.224l364.864-364.8c9.6-6.432 16-19.232 16-35.232z"  horiz-adv-x="1024" />

    
    <glyph glyph-name="icon-test69" unicode="&#59128;" d="M976-64h-928C22.4-64 0-41.60000000000002 0-12.799999999999955V780.8C0 809.6 22.4 832 48 832S96 809.6 96 780.8v-745.6h880c25.6 0 48-22.4 48-51.2s-22.4-48-48-48zM864 86.39999999999998h-96c-25.6 0-48 22.4-48 51.2V483.2c0 28.8 22.4 51.2 48 51.2h96c25.6 0 48-22.4 48-51.2v-348.8c0-25.6-22.4-48-48-48z m-272 0h-96c-25.6 0-48 22.4-48 51.2v544c0 28.8 22.4 51.2 48 51.2h96c25.6 0 48-22.4 48-51.2v-547.2c0-25.6-22.4-48-48-48z m-272 0H224c-25.6 0-48 22.4-48 51.2v99.2c0 28.8 22.4 51.2 48 51.2h96c25.6 0 48-22.4 48-51.2v-99.2c0-28.8-22.4-51.2-48-51.2z"  horiz-adv-x="1024" />

    
    <glyph glyph-name="icon-test70" unicode="&#59129;" d="M915.2-128H108.8c-25.6 0-44.8 22.4-44.8 48v832C64 777.6 83.2 800 108.8 800h76.8v-48c0-54.4 41.6-96 92.8-96s92.8 41.6 92.8 96V800H416v-48c0-54.4 41.6-96 92.8-96s92.8 41.6 92.8 96V800h44.8v-48c0-54.4 41.6-96 92.8-96 51.2 0 92.8 41.6 92.8 96V800h76.8c32 0 51.2-22.4 51.2-48v-832c0-25.6-19.2-48-44.8-48z m-124.8 656H233.6c-25.6 0-44.8-22.4-44.8-48s19.2-48 44.8-48h556.8c25.6 0 44.8 22.4 44.8 48s-19.2 48-44.8 48z m0-208H233.6c-25.6 0-44.8-22.4-44.8-48S208 224 233.6 224h556.8c25.6 0 44.8 22.4 44.8 48s-19.2 48-44.8 48z m6.4-208H227.2c-22.4 0-38.4-19.2-38.4-38.4S204.8 32 227.2 32H800c22.4 0 38.4 19.2 38.4 38.4s-19.2 41.6-41.6 41.6zM742.4 704c-25.6 0-44.8 22.4-44.8 48v96c0 25.6 19.2 48 44.8 48 25.6 0 44.8-22.4 44.8-48v-96c3.2-25.6-19.2-48-44.8-48zM512 704c-25.6 0-44.8 22.4-44.8 48v96c0 25.6 19.2 48 44.8 48s44.8-22.4 44.8-48v-96c0-25.6-19.2-48-44.8-48zM281.6 704C256 704 233.6 726.4 233.6 752v96C233.6 873.6 256 896 281.6 896s44.8-22.4 44.8-48v-96c0-25.6-19.2-48-44.8-48z"  horiz-adv-x="1024" />

    
    <glyph glyph-name="icon-test71" unicode="&#59130;" d="M512 896C230.4 896 0 665.6 0 384s230.4-512 512-512 512 230.4 512 512S793.6 896 512 896z m105.6-870.4c-28.8-12.8-41.6-9.6-57.6-16s-38.4-9.6-60.8-9.6c-35.2 0-64 9.6-83.2 28.8-19.2 19.2-41.6 44.8-41.6 73.6 0 0-3.2 57.6 12.8 96l51.2 131.2 9.6 38.4v25.6c0 19.2-9.6 32-16 38.4-6.4 6.4-35.2 9.6-54.4 9.6-9.6 0-19.2-3.2-28.8-6.4l-28.8-9.6 3.2 54.4c22.4 9.6 70.4 25.6 92.8 35.2 22.4 6.4 41.6 12.8 60.8 12.8 35.2 0 70.4-9.6 89.6-28.8 19.2-19.2 41.6-48 41.6-80 0-6.4 0-16-3.2-32 0-16-3.2-28.8-6.4-44.8L544 211.20000000000005c-3.2-12.8-6.4-25.6-6.4-38.4-3.2-16-3.2-44.8-3.2-54.4 0-19.2 3.2-32 12.8-38.4s12.8-16 28.8-16c25.6 0 25.6-3.2 48 9.6l-6.4-48z m-3.2 592c-16-16-35.2-28.8-57.6-28.8s-41.6 12.8-57.6 28.8-22.4 38.4-22.4 60.8 6.4 44.8 22.4 60.8c19.2 19.2 38.4 28.8 60.8 28.8s41.6-9.6 57.6-25.6c12.8-16 22.4-38.4 22.4-64 0-22.4-9.6-44.8-25.6-60.8z"  horiz-adv-x="1024" />

    
    <glyph glyph-name="icon-test72" unicode="&#59131;" d="M988.909657 63.40186900000003c19.140187-19.140187 31.900312-47.850467 31.900312-79.750779 0-60.610592-51.040498-111.65109-111.65109-111.65109-31.900312 0-57.420561 12.760125-79.750779 31.900312l-159.501558 165.881619c-66.990654-38.280374-143.551402-60.610592-226.492212-60.610591C197.781931 9.171339999999987 0 206.95327099999997 0 452.58567S197.781931 896 443.41433 896s443.41433-197.781931 443.41433-443.41433c0-82.94081-22.330218-159.501558-60.610591-226.492212l162.691588-162.691589zM443.41433 784.34891C258.392523 784.34891 111.65109 637.607477 111.65109 452.58567s149.931464-331.76324 331.76324-331.76324 331.76324 149.931464 331.76324 331.76324S628.436137 784.34891 443.41433 784.34891z"  horiz-adv-x="1024" />

    
    <glyph glyph-name="icon-test73" unicode="&#59132;" d="M960 320H64c-35.2 0-64 28.8-64 64s28.8 64 64 64h896c35.2 0 64-28.8 64-64s-28.8-64-64-64z m0 342.4H64c-35.2 0-64 28.8-64 64s28.8 64 64 64h896c35.2 0 64-28.8 64-64s-28.8-64-64-64zM64 105.60000000000002h896c35.2 0 64-28.8 64-64s-28.8-64-64-64H64c-35.2 0-64 28.8-64 64s28.8 64 64 64z"  horiz-adv-x="1024" />

    
    <glyph glyph-name="icon-test74" unicode="&#59133;" d="M688-128V409.6h188.8L512 896 147.2 409.6h188.8V-128h352z"  horiz-adv-x="1024" />

    
    <glyph glyph-name="icon-test75" unicode="&#59134;" d="M336 896v-537.6H147.2L512-128l364.8 486.4h-188.8V896h-352z"  horiz-adv-x="1024" />

    
    <glyph glyph-name="icon-test76" unicode="&#59135;" d="M752 617.6c38.4 0 67.2 32 67.2 70.4V761.6c0 38.4-32 70.4-67.2 70.4s-67.2-32-67.2-70.4v-70.4c-3.2-41.6 28.8-73.6 67.2-73.6z m-480 0c38.4 0 67.2 32 67.2 70.4V761.6C342.4 800 310.4 832 272 832S204.8 800 204.8 761.6v-70.4c0-41.6 32-73.6 67.2-73.6z m684.8 105.6h-102.4v-35.2s0-108.8-102.4-108.8c0 0-102.4 0-102.4 108.8V726.4h-272v-35.2s0-108.8-102.4-108.8c0 0-102.4 0-102.4 108.8v32H67.2C32 723.2 0 691.2 0 652.8v-646.4C0-32 32-64 67.2-64h886.4c38.4 0 67.2 32 67.2 70.4V652.8c3.2 38.4-28.8 70.4-64 70.4zM240 6.399999999999977H67.2v108.8h169.6v-108.8z m0 179.2H67.2v108.8h169.6v-108.8z m0 179.2H67.2v108.8h169.6v-108.8z m236.8-358.4H307.2v108.8h169.6v-108.8z m0 179.2H307.2v108.8h169.6v-108.8z m0 179.2H307.2v108.8h169.6v-108.8z m240-358.4h-169.6v108.8h169.6v-108.8z m0 179.2h-169.6v108.8h169.6v-108.8z m0 179.2h-169.6v108.8h169.6v-108.8z m240-358.4h-169.6v108.8h169.6v-108.8z m0 179.2h-169.6v108.8h169.6v-108.8z m0 179.2h-169.6v108.8h169.6v-108.8z"  horiz-adv-x="1024" />

    
    <glyph glyph-name="icon-test77" unicode="&#59136;" d="M864-128c-22.4 0-41.6 6.4-57.6 19.2L480 121.60000000000002H160c-54.4 0-96 41.6-96 92.8v310.4C64 576 105.6 617.6 160 617.6h316.8L803.2 876.8C819.2 886.4 841.6 896 864 896c54.4 0 96-41.6 96-92.8v-838.4c0-51.2-41.6-92.8-96-92.8z"  horiz-adv-x="1024" />

    
    <glyph glyph-name="icon-test78" unicode="&#59137;" d="M1004.8 758.4S918.4 860.8 912 864c0 0-28.8 32-48-3.2L259.2 275.20000000000005l124.8-134.4L953.6 723.2c16 22.4 25.6-12.8 25.6-12.8l-259.2-272 35.2-32S1008 678.4 1024 704c9.6 22.4-19.2 54.4-19.2 54.4zM83.2 160S22.4-16 0-86.39999999999998l102.4 112c-6.4 19.2 0 44.8 12.8 60.8 19.2 19.2 54.4 19.2 73.6 0 22.4-22.4 22.4-54.4 3.2-73.6-16-16-44.8-19.2-64-12.8L19.2-108.79999999999995l233.6 89.6 102.4 137.6-118.4 121.6L83.2 160z"  horiz-adv-x="1025" />

    
    <glyph glyph-name="icon-test79" unicode="&#59138;" d="M99.2 332.79999999999995c0-19.2 16-35.2 35.2-35.2s35.2 16 35.2 35.2c0 19.2-16 35.2-35.2 35.2s-35.2-16-35.2-35.2zM0 601.6V64c0-19.2 16-32 35.2-32h201.6V636.8H35.2C16 636.8 0 620.8 0 601.6z m35.2-134.4h102.4v-35.2H35.2v35.2z m102.4-336H35.2v35.2h102.4v-35.2z m0 67.2H35.2v35.2h102.4v-35.2z m67.2 134.4c0-38.4-32-67.2-70.4-67.2S64 297.6 64 332.79999999999995s32 67.2 70.4 67.2 70.4-28.8 70.4-67.2z m-67.2 169.6H35.2v35.2h102.4v-35.2z m553.6-198.4s60.8 41.6 105.6-12.8l86.4-128h6.4V502.4h-544v-336h352l-25.6 35.2s-41.6 67.2 19.2 102.4z m297.6 332.8h-32s-137.6 60.8-137.6 96c-12.8 9.6 3.2 16 3.2 16s44.8 32 57.6 128l-22.4-3.2s-3.2-48-38.4-102.4c0 0-41.6-16-28.8-32 16-64 131.2-105.6 131.2-105.6H275.2V32h518.4l-73.6 99.2H307.2V537.6h617.6v-406.4h-16l73.6-102.4h6.4c19.2 0 35.2 16 35.2 35.2V601.6c0 19.2-16 35.2-35.2 35.2z m-220.8-384c-9.6 16-28.8 22.4-48 12.8-16-9.6-22.4-28.8-12.8-44.8l217.6-310.4c9.6-16 28.8-22.4 48-12.8 16 9.6 22.4 28.8 12.8 44.8L768 252.79999999999995z"  horiz-adv-x="1024" />

    
    <glyph glyph-name="icon-test80" unicode="&#59139;" d="M249.22243 159.102804v31.900311h-31.900312v31.900312h31.900312v28.71028h-63.800623v35.090343h60.610592v28.71028h-31.900312v31.900312h31.900312v28.71028h-63.800623v31.900312l63.800623-3.190032v31.900312h-31.900312v31.900312h31.900312v31.900311h-63.800623v31.900312h63.800623v31.900311h-31.900312v31.900312h31.900312v31.900311h-63.800623v31.900312h63.800623v31.900311h-31.900312v31.900312h31.900312v31.900311h-63.800623v31.900312h63.800623s0 31.900312-31.900312 31.900311H32.300312c-15.950156 0-31.900312-12.760125-31.900312-31.900311v-628.436137c0-15.950156 12.760125-31.900312 31.900312-31.900312h188.211838c15.950156 0 28.71028 15.950156 28.71028 31.900312zM912.74891 672.697819L989.309657 710.978193c41.470405 41.470405 41.470405 111.65109 0 153.121495s-111.65109 41.470405-153.121495 0l-35.090343-79.750778L721.34704 864.099688s-19.140187 19.140187-38.248473 0l-19.172087-19.140186s-15.950156-22.330218 0-38.280374l76.560747-76.560748-360.47352-360.47352s-3.190031-12.760125 6.380062-35.090343l-25.520249-25.520249s-41.470405-38.248474-3.190031-76.528847c0 0 38.280374-41.470405 79.750779 0l25.520249 28.67838c9.570093-3.190031 19.140187-6.348162 31.900312-9.570094L855.328349 615.277259l76.560748-76.560748s19.140187-19.140187 38.280373 0l19.140187 19.140187s19.140187 19.140187 0 38.280374L912.74891 672.697819zM415.10405 251.61370699999998c-19.140187-19.140187-38.280374 0-38.280374 0-19.140187 19.172087 0 38.280374 0 38.280374l22.330218 22.330218s9.570093-12.760125 19.140187-22.330218c0 0 3.190031-6.380062 22.330218-15.950156l-25.520249-22.330218z m85.971339 67.118256c-35.090343-35.090343-34.930841-41.629907-66.831152-9.729595-28.71028 28.71028-22.202617 34.962741 9.697694 66.863053l325.383178 325.383177 57.133458-57.133458-325.383178-325.383177zM877.658567 127.202492h-28.71028v-31.900311h-35.090343v31.900311h-28.71028v-63.800623h-35.090343v63.800623h-31.900312v-31.900311h-31.900311v31.900311h-28.710281v-63.800623h-31.900311l3.221931 63.800623h-28.71028v-31.900311h-35.090343v31.900311h-28.71028v-63.800623h-35.090343v63.800623h-31.900311v-31.900311h-31.900312v31.900311h-28.71028v-63.800623h-35.090343v63.800623h-28.71028v-31.900311h-31.900312v31.900311h-31.900311v-63.800623h-31.900312v63.800623s-28.71028 0-28.71028-31.900311v-191.401869c0-15.950156 12.760125-31.900312 28.71028-31.900312H874.468536c15.950156 0 31.900312 12.728224 31.900311 31.900312v191.401869c3.190031 19.140187-12.760125 31.900312-28.71028 31.900311z"  horiz-adv-x="1024" />

    
    <glyph glyph-name="icon-test81" unicode="&#59140;" d="M640.03936 259.20000000000005c-80 9.6-64 57.6-67.2 60.8v35.2s44.8 22.4 57.6 60.8c22.4 12.8 28.8 16 32 32 0 0 3.2 57.6-22.4 57.6 0 0-9.6 0-6.4 12.8 3.2 12.8 0 57.6 0 73.6 0 16 3.2 57.6-28.8 64-22.4 3.2-25.6-3.2-35.2 0-9.6 0-22.4 38.4-44.8 38.4l-41.6-16c-19.2 0-16-6.4-28.8-6.4-9.6 0 3.2 0-28.8-3.2-32-6.4-44.8-48-44.8-64s-6.4-60.8-3.2-83.2c3.2-12.8-19.2-12.8-19.2-12.8-19.2 0-12.8-57.6-12.8-57.6 3.2-16 0-22.4 28.8-32 12.8-38.4 64-57.6 64-57.6s3.2-25.6 3.2-41.6c-3.2 0 16-44.8-73.6-57.6s-102.4-48-105.6-57.6C256.03936 169.60000000000002 256.03936 70.39999999999998 256.03936 70.39999999999998h512s0 115.2-16 131.2c-16 16-22.4 44.8-112 57.6z m384-188.8s-9.6 83.2-48 105.6c-12.8 12.8-25.6 35.2-92.8 44.8-67.2 9.6-54.4 44.8-54.4 48 0 6.4 3.2 28.8 3.2 28.8s28.8 19.2 38.4 48c16 9.6 3.2 12.8 6.4 22.4 0 0 6.4 51.2-6.4 44.8 0 0-12.8 0-9.6 9.6 3.2 9.6 3.2 44.8 3.2 57.6 0 12.8 3.2 44.8-22.4 51.2-16 3.2-3.2-3.2-9.6 0-9.6 0-19.2 16-32 16l-32-6.4c-16 0-12.8-3.2-22.4-6.4s3.2 0-22.4-3.2c-25.6-3.2-19.2-28.8-19.2-41.6s0-41.6 3.2-60.8c3.2-9.6-6.4-16-6.4-16-16 0-9.6-44.8-9.6-44.8 3.2-12.8-3.2-16 19.2-25.6 9.6-28.8 25.6-44.8 25.6-44.8v-35.2c25.6-16 35.2-32 48-54.4 19.2-22.4 19.2-137.6 19.2-137.6H1024.03936z m-736 192v35.2s22.4 16 32 44.8c22.4 9.6 16 12.8 16 25.6 0 0 6.4 44.8-9.6 44.8 0 0-12.8 3.2-9.6 16 0 16 3.2 48 0 60.8 0 12.8 3.2 38.4-19.2 41.6-25.6 3.2-16 3.2-22.4 3.2s-3.2 6.4-19.2 6.4l-32 6.4c-16 0-25.6-16-32-16-9.6 0 6.4 3.2-9.6 0-25.6-3.2-22.4-38.4-22.4-51.2 0-12.8-3.2-44.8 0-57.6 3.2-9.6-6.4-9.6-6.4-9.6-16 0-16-38.4-16-38.4 3.2-12.8-3.2-19.2 12.8-28.8 12.8-32 41.6-51.2 41.6-51.2v-28.8c0-3.2 6.4-35.2-51.2-48-67.2-9.6-80-32-92.8-44.8-51.2-25.6-48-102.4-48-102.4h220.8s0 86.4 19.2 140.8c12.8 19.2 22.4 35.2 48 51.2z"  horiz-adv-x="1024" />

    
    <glyph glyph-name="icon-test82" unicode="&#59141;" d="M444.8-76.79999999999995h147.2v294.4h-147.2v-294.4zM848 662.4V771.2h-185.6c-70.4 44.8-124.8 76.8-124.8 76.8L0 547.2h1024l-176 115.2z m76.8-150.4H112s-38.4 0-38.4-38.4v-515.2s-3.2-35.2 38.4-35.2h294.4v294.4s-3.2 38.4 38.4 38.4h147.2s38.4 0 38.4-38.4v-291.2h291.2c35.2 0 41.6 38.4 41.6 38.4v512c-3.2 0 0 35.2-38.4 35.2z m-704-441.6H147.2v73.6h73.6v-73.6z m0 108.8H147.2v73.6h73.6v-73.6z m112-108.8H259.2v73.6h73.6v-73.6z m0 108.8H259.2v73.6h73.6v-73.6z m444.8-108.8H704v73.6h73.6v-73.6z m0 108.8H704v73.6h73.6v-73.6z m108.8-108.8h-73.6v73.6h73.6v-73.6z m0 108.8h-73.6v73.6h73.6v-73.6z"  horiz-adv-x="1024" />

    
    <glyph glyph-name="icon-test83" unicode="&#59142;" d="M880.01056 828.8C707.21056 579.2 352.01056 598.4 352.01056 598.4c-41.6 0-35.2-35.2-35.2-35.2v-291.2c0-32 38.4-32 38.4-32 396.8 0 531.2-236.8 531.2-236.8s32-35.2 28.8 0v832c3.2 38.4-35.2-6.4-35.2-6.4zM246.41056 598.4H108.81056S0.01056 595.2 0.01056 492.8v-137.6s-3.2-115.2 102.4-115.2c0 0 38.4-22.4 38.4-64v-249.6s-6.4-41.6 35.2-41.6h67.2s38.4 9.6 38.4 38.4c0 0-3.2 137.6-32 137.6 0 0 64 73.6-6.4 108.8 0 0 35.2 48 35.2 73.6l3.2 320c0-3.2 6.4 35.2-35.2 35.2z m742.4 288c-19.2 0-35.2-16-35.2-35.2v-860.8c0-19.2 16-35.2 35.2-35.2s35.2 16 35.2 35.2V851.2c0 19.2-16 35.2-35.2 35.2z"  horiz-adv-x="1024" />

    
    <glyph glyph-name="icon-test84" unicode="&#59143;" d="M902.4 771.2l-140.8 89.6c0 19.2-16 35.2-35.2 35.2H124.8c-19.2 0-35.2-16-35.2-35.2v-812.8S150.4-128 224-128h675.2s32 6.4 32 32l3.2 832s-3.2 35.2-32 35.2zM832-57.60000000000002H195.2S137.6 0 137.6 48h588.8c19.2 0 32 16 32 35.2V828.8L864 745.6v-771.2c3.2 0 6.4-32-32-32zM796.8 752v-704c0-38.4-38.4-35.2-38.4-35.2H160l35.2-35.2h601.6c41.6 0 32 32 32 32V732.8l-32 19.2z"  horiz-adv-x="1024" />

    
    <glyph glyph-name="icon-test85" unicode="&#59144;" d="M774.394342 822.379507H172.807314c-41.599103 0-73.598413-31.99931-73.598413-73.598413v-806.382612c0-38.399172 31.99931-70.398482 73.598413-70.398482h451.190271l227.195101 217.595308V751.981025c0 38.399172-35.199241 70.398482-76.798344 70.398482zM211.206486 751.981025H735.99517c19.199586 0 38.399172-15.999655 38.399172-35.199241s-15.999655-38.399172-38.399172-38.399172H211.206486c-19.199586 0-38.399172 15.999655-38.399172 35.199241S192.0069 751.981025 211.206486 751.981025z m543.98827-259.194411h-223.99517c-9.599793 0-19.199586 9.599793-19.199586 19.199586s9.599793 19.199586 19.199586 19.199586h223.99517c9.599793 0 19.199586-9.599793 19.199586-19.199586s-6.399862-19.199586-19.199586-19.199586z m19.199586-54.398827c0-9.599793-9.599793-19.199586-19.199586-19.199586h-223.99517c-9.599793 0-19.199586 9.599793-19.199586 19.199586s9.599793 19.199586 19.199586 19.199586h223.99517c12.799724 0 19.199586-9.599793 19.199586-19.199586z m-19.199586 127.99724h-223.99517c-9.599793 0-19.199586 9.599793-19.199586 19.199586s9.599793 19.199586 19.199586 19.199586h223.99517c9.599793 0 19.199586-9.599793 19.199586-19.199586s-6.399862-19.199586-19.199586-19.199586z m-582.387442 0c0 19.199586 15.999655 35.199241 38.399172 35.199241h150.396757c19.199586 0 38.399172-15.999655 38.399172-35.199241v-108.797654c0-19.199586-15.999655-35.199241-38.399172-35.199241H211.206486c-19.199586 0-38.399172 15.999655-38.399172 35.199241v108.797654z m19.199586-217.595308h563.187856c9.599793 0 19.199586-9.599793 19.199586-19.199586s-9.599793-19.199586-19.199586-19.199586H192.0069c-9.599793 0-19.199586 9.599793-19.199586 19.199586s9.599793 19.199586 19.199586 19.199586z m-19.199586-127.99724c0 9.599793 9.599793 19.199586 19.199586 19.199586h563.187856c9.599793 0 19.199586-9.599793 19.199586-19.199586s-9.599793-19.199586-19.199586-19.199586H192.0069c-9.599793 0-19.199586 9.599793-19.199586 19.199586z m620.786614-121.597378l-182.396067-175.996205c-31.99931-31.99931-25.599448 25.599448-25.599448 25.599448V95.99517000000003c0 35.199241 35.199241 35.199241 35.199241 35.199241h159.99655c54.398827-3.199931 12.799724-31.99931 12.799724-31.99931zM851.192686 895.97792H288.00483C243.205796 895.97792 249.605658 860.778679 249.605658 860.778679h563.187856c76.798344 0 73.598413-73.598413 73.598413-73.598413v-694.385027c38.399172 0 38.399172 35.199241 38.399172 35.199241V828.779369c0 70.398482-73.598413 67.198551-73.598413 67.198551z"  horiz-adv-x="1024" />

    
    <glyph glyph-name="icon-test86" unicode="&#59145;" d="M976-22.399999999999977h-928C22.4-22.399999999999977 0 0 0 25.600000000000023V649.6c0 25.6 22.4 48 48 48h204.8l76.8 73.6c9.6 12.8 22.4 19.2 38.4 19.2h288c12.8 0 25.6-6.4 35.2-12.8l80-80h204.8c25.6 0 48-22.4 48-48v-624c0-25.6-22.4-48-48-48zM512 633.6c-160 0-288-124.8-288-281.6 0-153.6 128-281.6 288-281.6s288 124.8 288 281.6-128 281.6-288 281.6z m0-467.2c-105.6 0-192 83.2-192 185.6 0 102.4 86.4 185.6 192 185.6s192-83.2 192-185.6c0-102.4-86.4-185.6-192-185.6z"  horiz-adv-x="1024" />

    
    <glyph glyph-name="icon-test87" unicode="&#59146;" d="M779.68 678.24l-10.944 7.424C765.312 688 682.944 742.4 512.48 742.4h-0.96c-170.464 0-252.832-54.4-256.224-56.704l-11.008-7.456-2.336-13.024c-1.664-9.088-39.68-224.48 14.048-386.016 42.72-128.608 220.288-233.12 240.416-244.64l15.584-8.96 15.616 8.96a837.12 837.12 0 0 1 108.864 75.84c68.928 56.832 113.184 113.664 131.52 168.768 53.728 161.536 15.68 376.928 14.048 386.016l-2.368 13.056zM897.856 785.728l-3.392 18.624-15.68 10.624C873.888 818.304 756.192 896 512.672 896h-1.376C267.808 896 150.112 818.304 145.248 814.976l-15.68-10.624-3.392-18.624c-2.336-12.992-56.64-320.672 20.064-551.488 61.056-183.68 314.688-333.024 343.424-349.472L512-128l22.304 12.768c13.12 7.488 82.272 48 155.52 108.384 98.496 81.216 161.728 162.336 187.904 241.088 76.736 230.816 22.432 538.496 20.128 551.488z m-93.248-521.536c-20.96-63.008-71.52-127.872-150.336-192.864a960 960 0 0 0-124.416-86.688L512-25.600000000000023l-17.856 10.208c-22.976 13.152-225.888 132.64-274.752 279.552-61.376 184.704-17.952 430.848-16.064 441.216l2.688 14.912 12.544 8.512C222.496 731.424 316.64 793.6 511.456 793.6h1.088c194.784 0 288.96-62.176 292.832-64.8l12.576-8.512 2.752-14.912c1.792-10.368 45.28-256.512-16.096-441.184z"  horiz-adv-x="1024" />

    
    <glyph glyph-name="icon-test88" unicode="&#59147;" d="M563.2 332.79999999999995c12.8 12.8 22.4 32 22.4 51.2 0 19.2-9.6 38.4-22.4 51.2L124.8 876.8C112 889.6 92.8 896 73.6 896 32 896 0 864 0 822.4 0 800 9.6 780.8 25.6 768l384-384L19.2-3.2000000000000455c-12.8-12.8-19.2-32-19.2-51.2C0-96 32-128 73.6-128c19.2 0 38.4 6.4 51.2 19.2l438.4 441.6zM1024 384c0 19.2-9.6 38.4-22.4 51.2L563.2 876.8c-12.8 12.8-32 19.2-51.2 19.2-41.6 0-73.6-32-73.6-73.6 0-22.4 9.6-41.6 25.6-54.4l384-384-387.2-387.2c-12.8-12.8-19.2-32-19.2-51.2 0-41.6 32-73.6 73.6-73.6 19.2 0 38.4 6.4 51.2 19.2l438.4 438.4c9.6 16 19.2 35.2 19.2 54.4z"  horiz-adv-x="1024" />

    
    <glyph glyph-name="icon-test89" unicode="&#59148;" d="M416.231849 56.07692099999997l-95.768152-124.498596C192.772829-221.650717-27.493919-49.26804500000003 84.235591 110.34554000000003c31.922717 41.499532 63.845434 86.191336 92.575879 127.690869 6.384543 9.576815 22.345902 15.961359 35.114989 12.769087 9.576815 0 19.15363-6.384543 25.538174-15.961359 41.499532-51.076347 102.152695-92.57588 162.805857-118.114053 9.576815-3.192272 15.961359-9.576815 22.345902-19.15363 3.192272-9.576815 6.384543-19.15363 0-28.730446 3.192272 0 0-6.384543-6.384543-12.769087zM263.002807 352.95818999999995c41.499532 47.884076 86.191336 92.57588 118.114053 181.959488C553.499532 905.221196 914.226235 1000.989347 965.302583 774.338056c28.730445-118.114053-82.999064-312.842628-175.574944-383.072605-121.306325-89.383608-226.651291-102.152695-290.496726-207.497661-9.576815-15.961359-31.922717-22.345902-51.076347-12.769087-51.076347 28.730445-134.075412 89.383608-181.959488 124.498597-15.961359 15.961359-19.15363 41.499532-3.192271 57.46089z"  horiz-adv-x="1024" />

    
    <glyph glyph-name="icon-test90" unicode="&#59149;" d="M460.8 332.79999999999995l438.4-438.4c12.8-12.8 32-19.2 51.2-19.2 41.6 0 73.6 32 73.6 73.6 0 19.2-6.4 38.4-19.2 51.2L614.4 384l384 384c16 12.8 25.6 32 25.6 54.4C1024 864 992 896 950.4 896c-19.2 0-38.4-6.4-51.2-19.2L460.8 438.4c-12.8-12.8-22.4-32-22.4-51.2 0-22.4 9.6-41.6 22.4-54.4zM0 384c0-19.2 9.6-38.4 22.4-51.2l438.4-438.4c12.8-12.8 32-19.2 51.2-19.2 41.6 0 73.6 32 73.6 73.6 0 19.2-6.4 38.4-19.2 51.2L176 384l384 384c16 12.8 25.6 32 25.6 54.4C585.6 864 553.6 896 512 896c-19.2 0-38.4-6.4-51.2-19.2L22.4 438.4c-12.8-16-22.4-32-22.4-54.4z"  horiz-adv-x="1024" />

    
    <glyph glyph-name="icon-test91" unicode="&#59150;" d="M512 896C230.4 896 0 665.6 0 384s230.4-512 512-512 512 230.4 512 512S793.6 896 512 896z m0.032-778.208c-22.4 0-41.6 19.2-41.6 41.632 0 22.368 19.2 41.568 41.6 41.568s41.6-16 41.6-41.568c0-22.464-19.2-41.632-41.6-41.632z m90.912 276.224c-57.632-54.624-54.336-51.392-57.632-115.392h-70.336c3.2 70.4 19.168 92.864 73.696 144.288 28.768 25.728 48 54.528 48 92.928 0 46.304-28.704 70.368-76.832 70.368-56.064 0-89.536-28.768-89.536-102.368h-70.432c0 102.368 60.8 166.368 163.168 166.368 80 0 147.168-51.136 140.704-134.336-0.032-51.2-25.6-86.528-60.8-121.856z"  horiz-adv-x="1024" />

    
    <glyph glyph-name="icon-test92" unicode="&#59151;" d="M1020.8 384l-128 339.2c-6.4 19.2-25.6 32-44.8 32h-672c-19.2 0-38.4-12.8-44.8-32L3.2 384c-3.2-3.2-3.2-9.6-3.2-16V64c0-25.6 22.4-48 48-48h928c25.6 0 48 22.4 48 48v304c0 6.4 0 12.8-3.2 16z m-268.8 32c-25.6 0-48-22.4-48-48V320H320v48c0 25.6-22.4 48-48 48H118.4l92.8 240h604.8l92.8-240h-156.8z m-96 176c0 25.6-22.4 48-48 48-12.8 0-25.6-6.4-35.2-12.8l-60.8-64-60.8 60.8c-9.6 9.6-22.4 16-35.2 16-25.6 0-48-22.4-48-48 0-12.8 6.4-25.6 12.8-35.2l60.8-60.8-60.8-60.8c-9.6-9.6-12.8-19.2-12.8-35.2 0-25.6 22.4-48 48-48 12.8 0 25.6 6.4 35.2 12.8l60.8 60.8 60.8-60.8c9.6-9.6 19.2-12.8 35.2-12.8 25.6 0 48 22.4 48 48 0 12.8-6.4 25.6-12.8 35.2l-60.8 60.8 60.8 60.8c6.4 9.6 12.8 22.4 12.8 35.2z"  horiz-adv-x="1024" />

    
    <glyph glyph-name="icon-test93" unicode="&#59152;" d="M512 896C230.4 896 0 665.6 0 384s230.4-512 512-512 512 230.4 512 512S793.6 896 512 896z m0-921.6C284.8-25.600000000000023 102.4 156.79999999999995 102.4 384 102.4 611.2 284.8 793.6 512 793.6c227.2 0 409.6-182.4 409.6-409.6 0-227.2-182.4-409.6-409.6-409.6zM522.976 650.24c-102.368 0-163.168-64-163.168-166.368h70.432c0 73.6 33.472 102.368 89.536 102.368 48.128 0 76.832-24.064 76.832-70.368 0-38.4-19.2-67.232-48-92.928-54.496-51.424-70.464-73.888-73.664-144.288h70.336c3.264 64 0 60.768 57.632 115.392 35.2 35.328 60.768 70.624 60.768 121.856 6.432 83.2-60.704 134.336-140.704 134.336zM512 200.99199999999996c-22.4 0-41.6-19.2-41.6-41.568 0-22.432 19.2-41.632 41.6-41.632s41.6 19.2 41.6 41.632c0 25.568-19.2 41.568-41.6 41.568z"  horiz-adv-x="1024" />

    
    <glyph glyph-name="icon-test94" unicode="&#59153;" d="M515.2 566.4c44.448 0 76.8 36.416 76.8 76.832 0 44.48-36.384 76.8-76.8 76.8-44.48 0-76.8-36.384-76.8-76.8 0-40.448 32.32-76.832 76.8-76.832z m57.536-54.4H419.2v-41.6h41.6v-348.736h-41.6v-41.6h195.168v41.6h-41.6V512zM512 896C230.4 896 0 665.6 0 384s230.4-512 512-512 512 230.4 512 512S793.6 896 512 896z m0-921.6C284.8-25.600000000000023 102.4 156.79999999999995 102.4 384 102.4 611.2 284.8 793.6 512 793.6c227.2 0 409.6-182.4 409.6-409.6 0-227.2-182.4-409.6-409.6-409.6z"  horiz-adv-x="1024" />

    
    <glyph glyph-name="icon-test95" unicode="&#59154;" d="M512 896C230.4 896 0 665.6 0 384s230.4-512 512-512 512 230.4 512 512S793.6 896 512 896z m-1.568-192c40.448 0 76.832-32.352 76.832-76.8 0-40.416-32.384-76.832-76.832-76.832-44.48 0-76.8 36.448-76.8 76.832-0.032 40.416 32.32 76.8 76.8 76.8z m99.136-640h-195.136v41.632h41.6V454.336h-41.6v41.632h153.568v-390.336h41.568V64z"  horiz-adv-x="1024" />

    
    <glyph glyph-name="icon-test96" unicode="&#59155;" d="M572.8 848v-99.2l28.8-6.4c35.2-9.6 67.2-22.4 96-41.6l25.6-16 22.4 22.4 48 48 86.4-86.4L832 620.8l-22.4-22.4 16-25.6c16-28.8 28.8-60.8 38.4-96l6.4-32h105.6v-121.6h-108.8l-9.6-28.8c-9.6-32-22.4-64-38.4-89.6l-16-25.6 22.4-22.4 54.4-54.4-86.4-86.4-57.6 57.6-22.4 22.4-25.6-16c-28.8-16-57.6-28.8-89.6-35.2l-25.6-12.8v-112h-121.6V32l-28.8 6.4c-32 9.6-60.8 19.2-89.6 35.2l-25.6 16-22.4-22.4-57.6-57.6L140.8 96l54.4 54.4 22.4 22.4-16 25.6c-16 28.8-32 57.6-38.4 89.6l-9.6 28.8H48v121.6h105.6l6.4 32c9.6 35.2 22.4 67.2 38.4 96l16 25.6-22.4 28.8-51.2 48 86.4 86.4 48-48 22.4-22.4 25.6 16c28.8 19.2 64 32 96 41.6l28.8 6.4V848h124.8M512 198.39999999999998c102.4 0 185.6 83.2 185.6 185.6 0 102.4-83.2 185.6-185.6 185.6-102.4 0-185.6-83.2-185.6-185.6 0-102.4 83.2-185.6 185.6-185.6M614.4 896h-204.8v-108.8c-38.4-9.6-76.8-25.6-108.8-44.8L220.8 819.2 76.8 675.2l80-80c-19.2-32-32-70.4-41.6-108.8H0v-204.8h118.4c9.6-35.2 25.6-70.4 44.8-102.4L80 96 224-48l86.4 86.4c32-19.2 64-32 102.4-41.6V-128h204.8v121.6c35.2 9.6 70.4 22.4 102.4 41.6l86.4-86.4 144 144-83.2 83.2c19.2 32 35.2 67.2 44.8 102.4H1024v204.8h-115.2c-9.6 38.4-22.4 73.6-41.6 108.8L947.2 672l-144 144-76.8-76.8c-35.2 19.2-70.4 35.2-108.8 44.8V896h-3.2zM512 240c-80 0-144 64-144 144s64 144 144 144 144-64 144-144-64-144-144-144z"  horiz-adv-x="1024" />

    
    <glyph glyph-name="icon-test97" unicode="&#59156;" d="M956.8 764.8c-22.4 19.2-41.6 41.6-60.8 60.8C838.4 883.2 828.8 896 819.2 896H73.6C22.4 896 0 873.6 0 822.4v-870.4C0-105.60000000000002 19.2-128 64-128h35.2V416c0 48 38.4 70.4 67.2 70.4h688c48 0 67.2-38.4 67.2-73.6V-128h32c38.4 0 70.4 28.8 70.4 67.2V691.2c0 12.8-9.6 25.6-67.2 73.6zM358.4 649.6c0-28.8-16-60.8-48-60.8H268.8l-16 3.2c-22.4 0-48 25.6-48 48V736c0 35.2 12.8 57.6 48 57.6h48c38.4 0 54.4-22.4 54.4-57.6v-86.4z m454.4-214.4H201.6c-16 0-51.2-16-51.2-54.4v-505.6H867.2V380.79999999999995c3.2 35.2-28.8 54.4-54.4 54.4z"  horiz-adv-x="1024" />

    
    <glyph glyph-name="icon-test98" unicode="&#59157;" d="M1024 281.6v204.8h-115.2c-9.6 38.4-22.4 73.6-41.6 108.8l80 80-144 144-76.8-76.8c-35.2 19.2-70.4 35.2-108.8 44.8V896h-204.8v-108.8c-38.4-9.6-76.8-25.6-108.8-44.8L220.8 819.2 76.8 675.2l80-80c-19.2-32-32-70.4-41.6-108.8H0v-204.8h118.4c9.6-35.2 25.6-70.4 44.8-102.4L80 96 224-48l86.4 86.4c32-19.2 64-32 102.4-41.6V-128h204.8v121.6c35.2 9.6 70.4 22.4 102.4 41.6l86.4-86.4 144 144-83.2 83.2c19.2 32 35.2 67.2 44.8 102.4H1024z m-512-41.6c-80 0-144 64-144 144s64 144 144 144 144-64 144-144-64-144-144-144z"  horiz-adv-x="1024" />

    
    <glyph glyph-name="icon-test99" unicode="&#59158;" d="M534.393506-82.916114c-89.574024 0-169.55083 25.592578-239.93042 70.37959l-51.185157-92.773096c-15.995361-25.592578-25.592578-31.990723-41.587939-6.398145L32.13916 195.40317300000004c-25.592578 63.981445 3.199072 47.986084 38.388867 47.986084h332.703516c28.79165-3.199072 25.592578-15.995361 9.597217-41.587939l-51.185157-92.773096c51.185156-31.990723 108.768457-54.384229 172.749903-54.384229 185.546192 0 335.902588 156.754541 335.902588 351.89795s-150.356397 351.89795-335.902588 351.897949c-147.157324 0-268.722071-99.17124-316.708155-233.532275H80.125244C131.3104 736.046387 313.657519 896 534.393506 896c259.124854 0 467.064551-217.536914 467.064551-489.458057 0-268.722071-207.939697-489.458057-467.064551-489.458057z"  horiz-adv-x="1024" />

    
    <glyph glyph-name="icon-test100" unicode="&#59159;" d="M976 41.60000000000002h-313.6v-86.4l67.2-67.2v-16H297.6v16l67.2 67.2v86.4H48C19.2 41.60000000000002 0 64 0 92.79999999999995V777.6c0 28.8 22.4 51.2 48 51.2h364.8v-99.232H99.232v-515.296h828.896V726.3679999999999H611.2V828.8h364.8c28.8 0 48-22.4 48-51.2V96c0-28.8-22.4-54.4-48-54.4zM678.4 604.8c0-12.8-6.4-25.6-16-35.2l-115.2-118.4c-9.6-9.6-22.4-16-35.2-16s-25.6 6.4-35.2 16l-115.2 118.4c-9.6 9.6-16 22.4-16 35.2 0 28.8 22.4 51.2 48 51.2 12.8 0 25.6-6.4 35.2-16l32-32V844.8C464 873.6 483.2 896 512 896c28.8 0 48-22.4 48-51.2v-233.6l32 32c9.6 9.6 22.4 16 35.2 16 28.8-3.2 51.2-25.6 51.2-54.4z"  horiz-adv-x="1024" />

    
    <glyph glyph-name="icon-test101" unicode="&#59160;" d="M512-128C230.4-128 0 102.39999999999998 0 384S230.4 896 512 896s512-230.4 512-512-230.4-512-512-512z m0 928C281.6 800 96 614.4 96 384s185.6-416 416-416 416 185.6 416 416S742.4 800 512 800z m153.6-457.6l-256-160c-3.2 0-3.2-3.2-6.4-3.2s-3.2 0-6.4-3.2h-3.2-3.2-3.2-3.2c-25.6 0-48 22.4-48 48V544c0 25.6 22.4 48 48 48 9.6 0 19.2-3.2 25.6-9.6l252.8-156.8c16-9.6 25.6-22.4 25.6-41.6 0-19.2-9.6-32-22.4-41.6z"  horiz-adv-x="1024" />

    
    <glyph glyph-name="icon-test102" unicode="&#59161;" d="M233.6 716.8h124.8L182.4 896 0 716.8h105.6v-665.6H0L182.4-128l172.8 179.2H236.8V716.8z m105.6-131.2v-124.8h163.2V-128h131.2v230.4H736V-128h131.2V460.8H1024V585.6H339.2z m342.4 60.8c67.2 0 124.8 54.4 124.8 124.8 0 67.2-54.4 124.8-124.8 124.8-67.2 0-124.8-54.4-124.8-124.8V768c3.2-64 57.6-121.6 124.8-121.6z"  horiz-adv-x="1024" />

    
    <glyph glyph-name="icon-test103" unicode="&#59162;" d="M739.2 736L336 307.20000000000005l134.4-144L873.6 595.2 739.2 736z m272 73.6L944 880c-19.2 19.2-48 19.2-67.2 0l-102.4-108.8 134.4-144L1011.2 736c16 22.4 16 54.4 0 73.6zM256 80l179.2 48-134.4 144-44.8-192z m608-16c-54.4 0-96-41.6-96-96s41.6-96 96-96 96 41.6 96 96-44.8 96-96 96zM96 768C41.6 768 0 723.2 0 672s41.6-96 96-96 96 41.6 96 96-41.6 96-96 96z"  horiz-adv-x="1024" />

    
    <glyph glyph-name="icon-test104" unicode="&#59163;" d="M416 192h192V640h160l-256 256-256-256h160v-448z m377.6 128h-54.4l153.6-153.6V0H128v166.4L281.6 320H230.4L0 217.60000000000002V-64c0-35.2 28.8-64 64-64h896c35.2 0 64 28.8 64 64v281.6L793.6 320z"  horiz-adv-x="1024" />

    
    <glyph glyph-name="icon-test105" unicode="&#59164;" d="M646.4 524.8c73.6 73.6 73.6 195.2 0 272-73.6 73.6-195.2 73.6-272 0-73.6-73.6-73.6-195.2 0-272 76.8-76.8 198.4-76.8 272 0zM896 467.2m-128 0a128 128 0 1 1 256 0 128 128 0 1 1-256 0ZM128 467.2m-128 0a128 128 0 1 1 256 0 128 128 0 1 1-256 0ZM828.8 275.20000000000005s60.8-64 60.8-192v-166.4H1024v166.4c0 105.6-89.6 192-195.2 192zM0 83.20000000000005v-166.4h131.2v166.4c0 128 60.8 192 60.8 192-102.4 0-192-86.4-192-192zM515.2 313.6h-6.4c-140.8 0-262.4-86.4-262.4-227.2v-169.6h528v169.6c0 140.8-118.4 227.2-259.2 227.2z"  horiz-adv-x="1024" />

    
    <glyph glyph-name="icon-test106" unicode="&#59165;" d="M291.2 476.8l176-198.4c12.8-16 28.8-22.4 44.8-22.4s32 6.4 44.8 19.2l176 198.4c9.6 9.6 16 25.6 16 41.6 0 32-25.6 60.8-57.6 60.8-16 0-32-6.4-44.8-19.2l-73.6-83.2V835.2C569.6 870.4 544 896 512 896s-57.6-25.6-57.6-60.8v-364.8l-73.6 83.2c-12.8 16-28.8 22.4-44.8 22.4-32 0-57.6-25.6-57.6-60.8-3.2-16 3.2-28.8 12.8-38.4zM64 64h896c35.2 0 64 28.8 64 64s-28.8 64-64 64H64c-35.2 0-64-28.8-64-64s28.8-64 64-64z m896-64H64c-35.2 0-64-28.8-64-64s28.8-64 64-64h896c35.2 0 64 28.8 64 64s-28.8 64-64 64z"  horiz-adv-x="1024" />

    
    <glyph glyph-name="icon-test107" unicode="&#59166;" d="M576 720V896l-256-256 256-256v144h448v192H576z m192-512H320v-192h448V-128l256 256-256 256v-176zM0-128h192V896H0v-1024z"  horiz-adv-x="1024" />

    
    <glyph glyph-name="icon-test108" unicode="&#59167;" d="M288.192 896v-160.032H96.128V-128h640v159.872h191.744V896H288.192z m345.696-921.76H198.56V633.5360000000001h435.328v-659.296z m191.744 159.872h-89.504V735.968H390.624v54.4h435.008v-656.256z m-377.504 249.824c54.4 0 96 41.6 96 96s-41.6 96-96 96-96-41.6-96-96 41.6-96 96-96z m-64-352.064c54.4 0 96 41.6 96 96 0 54.368-41.6 96-96 96s-96-41.632-96-96c0-54.4 41.6-96 96-96z"  horiz-adv-x="1024" />

    
    <glyph glyph-name="icon-test109" unicode="&#59168;" d="M880 896h-736C118.4 896 96 873.6 96 848v-928c0-25.6 22.4-48 48-48h470.4c12.8 0 25.6 6.4 35.2 16l262.4 268.8c9.6 9.6 12.8 22.4 12.8 35.2V848C928 873.6 905.6 896 880 896zM192 700.8h636.8v-48H192V700.8z m0-147.2h636.8v-48H192v48z m345.6-195.2H192v48h342.4v-48z m342.4-144h-294.4v-291.2h-48v313.6c0 16 12.8 28.8 28.8 28.8h313.6v-51.2z"  horiz-adv-x="1024" />

    
    <glyph glyph-name="icon-test110" unicode="&#59169;" d="M540.768 393.6v192c0 19.2-15.936 35.2-35.136 35.2H204.864c-19.2 0-35.2-16-35.2-35.2v-192c0-19.2 16-35.232 35.2-35.232h300.768c22.4 0 35.136 16.064 35.136 35.232z m-70.304 35.2h-230.4v124.768h230.4V428.8z m48.096-96.064H284.736c-19.2 0-35.2-16-35.2-35.232v-118.464c0-19.232 16-35.232 35.2-35.232h230.56c19.296 0 35.296 16 35.296 35.232v118.464c3.2 19.232-12.8 35.232-32.032 35.232z m-35.424-115.296h-163.2v48.096h160v-48.096h3.2zM819.424 579.168h-195.264c-19.2 0-35.2-16-35.2-35.2v-316.704c0-19.232 16-35.232 35.2-35.232h195.264c19.264 0 35.264 16 35.264 35.232v316.704c-0.032 19.2-16.032 35.2-35.264 35.2z m-35.168-316.704h-128.064v246.272h128.064v-246.272zM953.6 768H70.4C32 768 0 736 0 697.6v-627.2C0 32 32 0 70.4 0h883.2c38.4 0 70.4 32 70.4 70.4V697.6C1024 736 992 768 953.6 768z m-31.84-630.528c0-19.232-16-35.232-35.232-35.232H137.632c-19.2 0-35.2 16-35.2 35.232V630.3679999999999c0 19.2 16 35.2 35.2 35.2h748.896c19.232 0 35.232-16 35.232-35.2v-492.896z"  horiz-adv-x="1024" />

    
    <glyph glyph-name="icon-test111" unicode="&#59170;" d="M796.8 560l204.8 204.8c28.8 28.8 28.8 76.8 0 108.8-28.8 28.8-76.8 28.8-105.6 0l-204.8-204.8h-6.4c-80 44.8-169.6 44.8-240-22.4-3.2-3.2-3.2-6.4 0-6.4l326.4-326.4c3.2-3.2 6.4-3.2 6.4 0 67.2 70.4 67.2 163.2 22.4 240-3.2 0-3.2 3.2-3.2 6.4zM384 582.4l323.2-323.2c3.2-3.2 3.2-6.4 0-9.6-16-28.8-105.6-176-131.2-374.4 0-3.2-3.2-3.2-3.2-3.2l-108.8 67.2v3.2c9.6 22.4 108.8 230.4 99.2 220.8-9.6-9.6-80-83.2-131.2-156.8l-28.8-41.6s-115.2 76.8-150.4 128V96c22.4 28.8 147.2 188.8 147.2 188.8L192 160h-3.2c-9.6 12.8-80 89.6-99.2 124.8V288c19.2 16 131.2 112 131.2 112L64 345.6h-3.2L0 448v3.2c28.8 6.4 259.2 54.4 371.2 131.2 6.4 3.2 9.6 3.2 12.8 0z"  horiz-adv-x="1024" />

    
    <glyph glyph-name="icon-test112" unicode="&#59171;" d="M129.80448 536.1279999999999c54.24 0 105.76-136.064 132.064-136.064 26.304 0 146.08 368.704 194.304 368.704 75.776 0 159.168-495.52 197.792-497.248 38.88-1.792 136.672 316.928 196 262.624 59.36-54.24 59.68-110.08 174.272-192.608-108.48-14.016-147.648 74.272-174.272 64.256-26.56-10.048-143.232-294.08-217.824-390.624-44.736 0-132.8 495.456-181.6 495.456-48.8 0-152.512-314.08-184.384-314.08-31.808 0-116.288 176.16-143.392 176.16-27.136 0-90.688-163.36-117.792-163.36-27.168 0 70.624 326.784 124.832 326.784z"  horiz-adv-x="1024" />

    
    <glyph glyph-name="icon-test113" unicode="&#59172;" d="M930.864646 403.184001L115.517434 889.194888c-28.77696 15.9872-47.961601 3.19744-41.566721-31.9744l172.661763-940.047375c6.39488-35.171841 28.77696-38.369281 47.961601-9.59232 0 0 111.910402 159.872002 201.438723 255.795204l185.451523-274.979844c12.78976-15.9872 35.171841-22.38208 51.15904-9.59232l86.330882 60.751361c15.9872 12.78976 22.38208 35.171841 9.59232 51.15904l-185.451523 274.979845c118.305282 47.961601 281.374724 89.528321 281.374724 89.528321 35.171841 6.39488 38.369281 28.77696 6.39488 47.961601z"  horiz-adv-x="1024" />

    
    <glyph glyph-name="icon-test114" unicode="&#59173;" d="M800 512v-192h128V643.2L713.6 896H0v-1024h576v128H128V768h448v-256h224z m224-438.4l-182.4 179.2v-137.6h-204.8v-131.2h201.6V-128l185.6 201.6z"  horiz-adv-x="1024" />

    
    <glyph glyph-name="icon-test115" unicode="&#59174;" d="M512.01472 64S-3.18528 384 0.01472 384c3.2 3.2 0-128 0-128l512-320 512 320v128c3.2-6.4-512-320-512-320z m512 448L512.01472 832 0.01472 512l512-320 512 320z"  horiz-adv-x="1024" />

    
    <glyph glyph-name="icon-test116" unicode="&#59175;" d="M0 0h320V768H0v-768z m384 0h256V768h-256v-768zM704 768v-768h320V768H704z"  horiz-adv-x="1024" />

    
    <glyph glyph-name="icon-test117" unicode="&#59176;" d="M0-64l320 128V832L0 704v-768z m384 160l320-160V672L384 864v-768zM768 672v-768l256 192V864l-256-192z"  horiz-adv-x="1024" />

    
    <glyph glyph-name="icon-test118" unicode="&#59177;" d="M64 236.79999999999995S304 0 457.6-128l3.2 217.6s492.8 0 499.2 457.6c0 0 9.6 230.4-92.8 345.6 0 0 76.8-275.2 3.2-412.8 0 0-73.6-233.6-412.8-140.8l3.2 214.4C432 556.8 64 236.79999999999995 64 236.79999999999995z"  horiz-adv-x="1024" />

    
    <glyph glyph-name="icon-test119" unicode="&#59178;" d="M918.4 742.4c0 28.8-22.4 51.2-51.2 51.2H153.6c-28.8 0-51.2-22.4-51.2-51.2v-713.6c0-28.8 22.4-51.2 51.2-51.2h576l92.8-102.4H102.4c-64 0-102.4 44.8-102.4 102.4V796.8C0 857.6 41.6 896 102.4 896h809.6c60.8 0 105.6-41.6 105.6-96v-726.4l-102.4 99.2V742.4zM486.4 121.60000000000002L384 323.20000000000005l-233.6-48L281.6 480 192 704l214.4-86.4 214.4 137.6-57.6-233.6L768 416l-166.4-41.6c134.4-124.8 380.8-358.4 406.4-380.8 19.2-19.2 16-38.4 12.8-51.2v-12.8c0-28.8-22.4-51.2-51.2-51.2h-6.4c-12.8-6.4-32-9.6-51.2 9.6-73.6 80-268.8 288-377.6 409.6l-48-176z"  horiz-adv-x="1024" />

    
    <glyph glyph-name="icon-test120" unicode="&#59179;" d="M512 896S128 467.2 128 256s172.8-384 384-384 384 172.8 384 384S512 896 512 896z m-64-768c0-35.2-28.8-64-64-64h-64c-35.2 0-64 28.8-64 64v64c0 35.2 28.8 64 64 64h64c35.2 0 64-28.8 64-64v-64z"  horiz-adv-x="1024" />

    
    <glyph glyph-name="icon-test121" unicode="&#59180;" d="M694.4 284.79999999999995c12.768 76.768 89.6 281.6 3.2 448C576 969.6 374.4 937.6 297.6 704c-41.6-128 32-320 32-320s32-67.2 32-160c0-70.4-35.2-160 0-224 121.6-214.4 272-118.4 332.8 32 22.4 48-12.8 156.8 0 252.8z m-60.8-185.6c-41.6-121.6-140.8-198.368-224-25.6-22.4 51.232 0 124.8 0 179.232 0 73.6-22.4 128-22.4 128s-48 153.6-22.4 256c51.2 188.8 185.6 214.4 268.8 25.6 57.6-134.4 6.4-297.6-3.2-358.4-3.2-76.832 19.2-163.232 3.2-204.832zM601.6 320c6.4 51.2 44.8 185.6 3.232 294.4-60.8 153.6-160 131.2-198.4-22.4C384 508.8 422.4 384 422.4 384s16-44.8 16-105.6c0-44.8-16-105.6 0-147.232 60.8-140.768 134.4-76.768 166.4 22.4 9.6 32.032-9.6 102.432-3.2 166.432z m-44.736-121.6c-19.232-80-55.488-65.632-76.864-16-12.8 32 0 80 0 118.4 0 48-9.6 83.2-9.6 83.2s-25.6 99.2-9.6 166.4c25.184 80.064 60.8 140.8 99.264 16 28.8-86.4 3.2-195.2 0-233.6-6.4-51.2 3.2-108.8-3.2-134.4z"  horiz-adv-x="1024" />

    
    <glyph glyph-name="icon-test122" unicode="&#59471;" d="M810.688 896H213.344A213.312 213.312 0 0 1 0 682.656v-597.344A213.376 213.376 0 0 1 213.344-128h597.344A213.376 213.376 0 0 1 1024 85.31200000000001V682.656A213.344 213.344 0 0 1 810.688 896z m26.624-343.904l-390.816-387.84a34.848 34.848 0 0 0-48.832 0l-170.944 169.76a33.856 33.856 0 0 0 0 48.352c6.528 6.784 15.424 10.24 24.288 10.24s17.792-3.456 24.512-10.24l146.432-145.312L788.576 600.672a34.72 34.72 0 0 0 48.736 0c6.816-6.784 10.048-15.648 10.048-24.288 0-8.896-3.232-17.504-10.048-24.288z"  horiz-adv-x="1024" />

    
    <glyph glyph-name="icon-test123" unicode="&#59472;" d="M883.136-119.93600000000004H126.176a126.208 126.208 0 0 0-126.176 126.24V763.7760000000001C0 833.504 57.312 896 126.976 896h761.984a127.552 127.552 0 0 0 127.008-126.976V7.039999999999964c-0.032-69.696-63.136-126.976-132.832-126.976z m69.312 888.96a63.776 63.776 0 0 1-63.488 63.488H126.976c-34.816 0-63.904-33.888-63.904-68.736v-757.472c0-34.88 28.256-63.168 63.104-63.168h756.96c34.816 0 69.312 29.056 69.312 63.872V769.024z m-190.464-571.456H253.984a31.776 31.776 0 1 0 0 63.488h508a31.744 31.744 0 0 0 0-63.488z m0 190.464H253.984a31.776 31.776 0 1 0 0 63.488h508c17.472 0 31.68-14.176 31.68-31.744s-14.208-31.744-31.68-31.744z m0 190.496H253.984a31.744 31.744 0 1 0 0 63.488h508a31.744 31.744 0 0 0 0-63.488z"  horiz-adv-x="1029" />

    
    <glyph glyph-name="icon-test124" unicode="&#59473;" d="M642.368 888.544V888.704H174.784a61.568 61.568 0 0 1-61.92-61.248v-886.944c0-33.824 27.744-61.248 61.92-61.248H876.8c34.016 0 61.952 27.424 61.952 61.248V596L642.368 888.544z m260.352-948c0-14.208-11.68-25.6-25.92-25.6H174.752a25.76 25.76 0 0 0-25.92 25.6V827.488c0 14.208 11.712 25.632 25.92 25.632h449.792v-278.336h278.144v-634.24h0.032z m-513.312 126.848H244.352v35.584h145.056v-35.584z m126.016 130.304H244.32V233.27999999999997h271.104v-35.584z m288.096 130.24H244.352v35.552H803.52v-35.552z m0 130.272H244.352v35.584H803.52v-35.584z m0.896-155.264a21.728 21.728 0 0 1-30.272 0l-227.52-223.04-90.848 89.056a21.44 21.44 0 0 1-30.272 0 20.544 20.544 0 0 1 0-29.632l106.048-104.128a21.792 21.792 0 0 1 30.336 0l242.528 237.952a20.96 20.96 0 0 1 0 29.792"  horiz-adv-x="1024" />

    
    <glyph glyph-name="icon-test125" unicode="&#59474;" d="M143.872 306.75199999999995l90.368 90.336 20.32-20.32-90.368-90.336zM459.392 522.528l-36.16-36.16-29.536 29.536 36.16 36.16zM384.992 524.576l-28.384 28.448 36.224 36.096 28.384-28.448zM263.68 367.744l19.936-19.968-90.432-90.336-19.936 19.968zM0 896v-1024L1024 896H0z m233.312-342.816a324.192 324.192 0 0 0 62.304 2.432l0.16-14.112c-17.472 1.344-38.56 0.576-62.88-2.624l0.416 14.304z m-146.24-271.232c22.4 41.984 33.312 77.76 33.12 106.944l-60.8-60.832-9.792 9.824 71.712 71.68-18.048 18.048 10.144 10.176 18.08-18.08 71.712 71.744 9.824-9.76-60.448-60.416c29.728-1.152 64.576 9.216 104.672 31.616l4.928-13.184c-46.144-23.168-85.856-32.384-118.624-27.456l-2.24-2.304 37.248-37.312-10.144-10.144-37.312 37.28-2.272-2.272c3.776-33.12-5.472-72.8-27.264-118.784l-14.496 3.232z m147.968 134.368l67.744-67.744-110.304-110.368-67.808 67.808 110.368 110.304z m-41.248-230.272l-9.408 9.44 160.576 160.576 9.408-9.376-160.576-160.64z m210.464 213.472l-13.184 5.28c0 4.544-1.152 7.936-3.616 10.336l-79.424 79.456-28.768-28.768-9.984 9.984 38.752 38.752 86.432-86.368c1.12 12.416 1.504 26.336 1.344 41.952l13.344-8.096c0.192-21.28-1.312-42.016-4.896-62.528z m18.08 68.128l-84.352 84.384 55.552 55.52 84.352-84.32-55.552-55.584z m93.76 32.032c-3.392-3.36-9.408-9.056-17.888-16.736l-11.488 6.592c7.552 6.784 14.144 12.992 19.392 18.272 9.984 9.984 9.44 22.208-1.888 36.512-11.264 13.952-47.616 51.776-108.608 113.536l-69.888-69.856c6.24-19.424 9.248-39.36 8.864-60.064l-14.336 1.888a169.728 169.728 0 0 1-25.024 90.176l11.648 8.672c5.12-8.832 9.632-17.504 13.632-26.336l75.456 75.488c67.04-67.008 107.328-109.216 121.28-126.944 14.848-18.24 14.688-35.36-1.152-51.2z m146.912 140.992l-10.496-10.592-65.12 65.184-57.632-57.632 12.672-12.64-10.368-10.304-86.624 86.624 67.936 67.968-34.816 34.848 10.56 10.56 34.816-34.848 68.128 68.16 86.624-86.624-10.368-10.336-12.608 12.576-57.856-57.792 65.152-65.152zM587.936 715.84l-53.792 53.76 57.76 57.792 53.824-53.824zM519.84 647.616L465.984 701.44l57.6 57.664 53.856-53.824z"  horiz-adv-x="1024" />

    
    <glyph glyph-name="icon-test126" unicode="&#59475;" d="M304.64 680.576h414.784c168.224 0 304.608-133.28 304.608-297.664v-12.672c0-164.352-136.384-297.664-304.608-297.664H304.64c-168.224 0-304.64 133.312-304.64 297.664v12.672c0.032 164.384 136.416 297.664 304.64 297.664z"  horiz-adv-x="1027" />

    
    <glyph glyph-name="icon-test127" unicode="&#59476;" d="M512 384m-512 0a512 512 0 1 1 1024 0 512 512 0 1 1-1024 0Z"  horiz-adv-x="1024" />

    
    <glyph glyph-name="icon-test128" unicode="&#59477;" d="M442.176 372.576L65.504 827.424l12.128 10.4 376.672-454.912zM79.552 860.512l397.12-479.52-36.416-31.04L43.168 829.44zM441.216 361.24800000000005l-386.88 467.2 24.288 20.704 386.88-467.232-24.288-20.672zM76.672 826.4639999999999l366.464-442.592L76.672 826.4639999999999zM80.544 871.84l407.264-491.84-48.544-41.408L32 830.432zM55.776 871.84h912.416v-16.064H55.776zM39.936 887.936h944.16v-48.288H39.936zM976.096 847.712H47.84V879.904h928.256v-32.192zM63.712 863.808h896.576H63.712zM32 896h960v-64.384H32zM582.912 372.79999999999995l-12.192 10.336L946.272 837.632l12.16-10.368zM944.48 860.128l36.384-31.072-396.256-478.88-36.384 31.104zM583.776 361.504l-24.256 20.672L945.344 848.896l24.32-20.704-385.888-466.688z m363.52 464.704l-300.096-363.04 300.096 363.04zM943.36 871.552l48.608-41.376L585.696 338.88l-48.512 41.376zM448.224 359.13599999999997h15.84v-301.696h-15.84zM432.352 373.216h47.552v-329.952h-47.552zM440.256 366.11199999999997h31.712v-315.808h-31.712zM424.416 380.256h63.392v-344.032h-63.392zM560.992 359.456h15.84v-466.624h-15.84zM545.12 373.34400000000005h47.52v-494.368h-47.52zM553.088 366.4h31.648v-480.48h-31.648zM537.184 380.256h63.456V-128h-63.456z"  horiz-adv-x="1024" />

    
    <glyph glyph-name="icon-test129" unicode="&#59478;" d="M892.224 698.24c0 24.128-18.912 43.744-42.336 43.744H53.792c-23.424 0-42.368-19.584-42.368-43.744s18.944-43.744 42.368-43.744h796.064c23.456 0 42.368 19.552 42.368 43.744M1009.984 39.87199999999996l-137.664 137.92c74.88 87.072 71.2 219.104-11.2 301.632a221.184 221.184 0 0 1-313.024 0 220.704 220.704 0 0 1-64.8-156.8 221.856 221.856 0 0 1 64.8-156.896 219.712 219.712 0 0 1 156.448-64.992 218.88 218.88 0 0 1 136.608 47.328l138.528-138.656c4.192-4.256 9.632-6.304 15.136-6.304s10.976 2.048 15.2 6.304a21.696 21.696 0 0 1-0.032 30.464m-373.696 117.536a176.96 176.96 0 0 0-57.792 38.816 177.44 177.44 0 0 0-52.256 126.368c0 47.776 18.496 92.544 52.256 126.304a177.184 177.184 0 0 0 126.016 52.288c45.728 0 91.392-17.344 126.112-52.288a178.976 178.976 0 0 0 0-252.672 177.024 177.024 0 0 0-126.112-52.384 176.224 176.224 0 0 0-68.224 13.568M438.272 460.704c0 24.16-18.912 43.744-42.368 43.744H53.792c-23.424 0-42.368-19.616-42.368-43.744 0-24.16 18.944-43.744 42.368-43.744h342.112c23.456 0 42.368 19.584 42.368 43.744M347.488 224.70399999999995c0 24.128-18.912 43.712-42.368 43.712H53.792c-23.424 0-42.368-19.584-42.368-43.712 0-24.224 18.944-43.744 42.368-43.744h251.328c23.456 0 42.368 19.552 42.368 43.744"  horiz-adv-x="1024" />

    
    <glyph glyph-name="icon-test130" unicode="&#59479;" d="M996.864-24.192000000000007H538.656V357.472h458.208v-381.664z m-441.696 16.544h425.184V340.96000000000004H555.168v-348.608z m-69.824-16.544H27.104V357.472h458.208v-381.664z m-441.696 16.544H468.8V340.96000000000004H43.648v-348.608z m953.216 418.176H538.656V792.192h458.208v-381.664z m-441.696 16.512h425.184V775.648H555.168v-348.608z m-69.824-16.512H27.104V792.192h458.208v-381.664z m-441.696 16.512H468.8V775.648H43.648v-348.608zM1013.376-40.70399999999995H522.112v414.72h491.264v-414.72z m-441.696 49.536h392.128v315.584H571.68v-315.584z m-69.824-49.536H10.592v414.72h491.264v-414.72zM60.16 8.831999999999994h392.128v315.584H60.16v-315.584z m953.216 385.152H522.112V808.704h491.264v-414.72z m-441.696 49.568h392.128V759.136H571.68v-315.584z m-69.824-49.568H10.592V808.704h491.264v-414.72zM60.16 443.552h392.128V759.136H60.16v-315.584z"  horiz-adv-x="1024" />

    
    <glyph glyph-name="icon-test131" unicode="&#59480;" d="M518.656 649.952l-53.216 53.248 56.896 56.896 53.216-53.216zM471.232 539.712l-89.344-89.344-19.712 19.744 89.312 89.344zM442.56 568.384l-89.312-89.344-20.128 20.096 89.312 89.344zM0 896v-1024L1024 896H0z m292.96-277.408l10.016 10.048 17.856-17.856 70.912 70.912 9.664-9.696-59.68-59.744c29.408-1.088 63.84 9.12 103.424 31.264l4.864-13.024c-45.568-22.912-84.864-32-117.216-27.168l-2.24-2.24 36.832-36.896-10.048-10.016-36.832 36.832-2.208-2.208c3.68-32.736-5.408-72-27.008-117.408l-14.336 3.168c22.112 41.472 32.928 76.832 32.736 105.664L249.6 520.1279999999999l-9.664 9.696 70.88 70.88-17.856 17.888z m197.28-78.144l-109.088-109.056-66.976 66.976 109.056 109.056 67.008-66.976z m-204.096-267.776l-10.048-10.048-85.984 86.016-2.432-2.432c17.088-44.32 18.976-92.64 5.76-145.312l-15.264 3.744c14.176 48.416 14.72 92.8 1.312 133.376l-64.576-64.576-10.048 10.048 75.2 75.2-35.936 35.872-64-64-10.048 10.08 64 64-26.624 26.624 10.048 10.048 26.56-26.592L209.408 480l10.048-10.048-65.312-65.312 35.936-35.936 75.168 75.2 10.048-10.048-64.384-64.352c37.056-12.128 81.12-11.616 132.512 0.992l1.856-16.32c-55.072-10.432-102.528-8-142.72 6.88l-2.4-2.368 85.984-86.016z m96.32 107.168l-9.28 9.312 158.72 158.72 9.248-9.312-158.688-158.72z m277.76 263.264l-10.336-10.432-64.448 64.384-56.928-56.928 12.512-12.48-10.24-10.208L445.12 703.04l67.2 67.168-34.432 34.432 10.432 10.432 34.432-34.432L590.048 848l85.664-85.6-10.24-10.24-12.544 12.416-57.056-57.12 64.352-64.352zM586.016 717.376L532.8 770.592l57.12 57.152 53.248-53.216z"  horiz-adv-x="1024" />

    
    <glyph glyph-name="icon-test132" unicode="&#59481;" d="M513.344 160l-512 736h1024l-512-736z"  horiz-adv-x="1025" />

    
    <glyph glyph-name="icon-test133" unicode="&#59482;" d="M512 896C229.248 896 0 666.752 0 384s229.248-512 512-512 512 229.248 512 512S794.784 896 512 896z m9.856-209.504a66.048 66.048 0 1 0 0-132.096 66.048 66.048 0 0 0 0 132.096z m69.76-590.752h-186.016v23.2h69.728V456.16h-46.464v23.264h46.464v0.032h93.056v-360.544h23.264v-23.168h-0.032z"  horiz-adv-x="1024" />

    
    <glyph glyph-name="icon-test134" unicode="&#59483;" d="M0.032 502.432l315.584-234.048L196.544-128l315.072 236.416 330.592-236.32-134.496 395.2L1024 502.4H633.376L513.088 896l-122.72-393.568H0.032z"  horiz-adv-x="1024" />

    
    <glyph glyph-name="icon-test135" unicode="&#59484;" d="M512.032 894.272l511.968-736H0l512.032 736z"  horiz-adv-x="1024" />

    
    <glyph glyph-name="icon-test136" unicode="&#59485;" d="M227.328-84.67200000000003l107.328 357.28-284.672 211.136h351.968l111.104 356.288 108.896-356.288h352.192l-285.184-212 121.248-356.416-298.368 213.408-284.512-213.408z m284.256 232.096l268.992-192.384-109.568 322.112 257.888 191.712h-318.368l-97.6 319.36-99.584-319.392h-318.08l257.056-190.656-97.12-323.104 256.384 192.352zM197.088-128l118.4 394.272L0 500.288h389.792L513.184 896l120.928-395.744H1024l-315.552-234.56 133.952-393.664-330.336 236.256L197.088-128z m314.24 295.904l237.024-169.536-96.864 284.864 227.488 169.152h-280.672l-85.6 279.968-87.296-279.968H145.216l226.208-167.808L285.44-1.6000000000000227l225.888 169.504z"  horiz-adv-x="1024" />

    
    <glyph glyph-name="icon-test137" unicode="&#59486;" d="M519.04 650.56l-53.056 53.056 56.768 56.8 53.12-53.088zM471.744 540.4159999999999l-89.088-89.056-19.68 19.68 89.088 89.088zM443.2 569.056l-89.152-89.12-20.064 20.096 89.12 89.088zM586.24 717.696l-53.024 53.088 56.992 56.96 53.056-53.056zM0 896v-1024L1024 896H0z m293.92-276.832l10.016 10.016 17.792-17.856 70.688 70.72 9.664-9.632-59.552-59.584c29.312-1.12 63.712 9.12 103.2 31.2l4.832-12.992c-45.504-22.816-84.64-31.904-116.96-27.072l-2.208-2.24 36.768-36.736-10.048-10.016-36.736 36.736-2.208-2.24c3.712-32.672-5.376-71.84-26.912-117.152l-14.304 3.2c22.08 41.376 32.864 76.64 32.672 105.408l-59.968-59.936-9.632 9.632 70.72 70.72-17.824 17.824z m196.736-77.952l-108.768-108.8-66.784 66.848L423.872 608l66.784-66.784z m-157.728-210.08l-102.08-102.08c-13.152-13.184-26.336-12.992-39.712 0.384l-98.56 98.56 10.208 10.208 27.872-27.84 105.408 105.44-52 51.968-126.4-126.432-9.664 9.6 136.64 136.64 71.456-71.52-115.616-115.616 59.008-59.104c8.16-8.128 16.352-8.128 24.672 0.256l96.352 96.352c4.64 4.608 7.232 9.44 7.584 14.272-0.192 8-10.208 22.848-30.24 45.152l12.992 6.72c20.768-24.16 31.744-41.024 32.672-50.528 0-7.808-3.552-15.392-10.592-22.432z m50.24 49.888l-9.248 9.28 158.336 158.336 9.248-9.28-158.336-158.336z m277.088 262.624l-10.368-10.4-64.256 64.224-56.8-56.8 12.48-12.448-10.144-10.208-85.408 85.376 67.04 67.008-34.4 34.336 10.4 10.4L523.104 780.8l67.2 67.2 85.376-85.376-10.176-10.208-12.512 12.416-56.992-56.96 64.256-64.224z"  horiz-adv-x="1024" />

    
    <glyph glyph-name="icon-test138" unicode="&#59487;" d="M967.648 560.832h-915.2C23.52 560.832 0 583.136 0 610.496c0 27.328 23.52 49.6 52.448 49.6h915.2c28.928 0 52.48-22.272 52.48-49.6 0-27.36-23.52-49.664-52.48-49.664zM967.648 318.24h-915.2c-28.928 0-52.448 22.272-52.448 49.6 0 27.36 23.52 49.632 52.448 49.632h915.2c28.928 0 52.48-22.272 52.48-49.632 0-27.328-23.52-49.6-52.48-49.6zM967.648 86.65599999999995h-915.2C23.52 86.65599999999995 0 108.89599999999996 0 136.288s23.52 49.632 52.448 49.632h915.2c28.928 0 52.48-22.24 52.48-49.632s-23.52-49.632-52.48-49.632z"  horiz-adv-x="1024" />

    
    <glyph glyph-name="icon-test139" unicode="&#59488;" d="M957.92032 651.072h-165.344c-2.496 0-48.608 1.216-86.912 79.136-20.448 41.536-78.208 37.696-78.208 37.696h-231.072s-53.664 1.12-76.288-37.216C286.40032 673.6 258.11232 653.248 231.23232 651.04H66.04832A66.336 66.336 0 0 1 0.00032 584.288v-517.536C0.00032 29.823999999999955 29.53632 0 66.04832 0h891.872c36.48 0 66.048 29.824 66.048 66.752V584.288a66.432 66.432 0 0 1-66.048 66.784M505.31232 104.12800000000004c-126.528 0-229.216 103.776-229.216 231.744 0 127.936 102.656 231.712 229.216 231.712 126.624 0 229.28-103.808 229.28-231.712-0.032-127.968-102.688-231.744-229.28-231.744m295.648 413.376a24.832 24.832 0 0 0-24.704 25.056c0 13.856 11.008 25.024 24.704 25.024 13.696 0 24.832-11.168 24.832-25.024a24.928 24.928 0 0 0-24.832-25.056M115.58432 734.528h99.072v-50.08H115.58432V734.528z m388-606.016c-113.28 0-205.184 92.832-205.184 207.36 0 114.432 91.872 207.328 205.184 207.328 113.248 0 205.088-92.864 205.088-207.328 0-114.528-91.84-207.36-205.088-207.36"  horiz-adv-x="1024" />

    
    <glyph glyph-name="icon-test140" unicode="&#59489;" d="M971.328 556.1279999999999H52.672C23.584 556.1279999999999 0 578.528 0 605.9839999999999c0 27.488 23.616 49.856 52.672 49.856h918.688c29.024 0 52.64-22.368 52.64-49.856 0-27.456-23.616-49.856-52.672-49.856zM52.672 639.232c-19.872 0-36.064-14.912-36.064-33.248s16.192-33.248 36.064-33.248h918.688c19.872 0 36.064 14.912 36.064 33.248s-16.192 33.248-36.064 33.248H52.672zM971.328 312.448H52.672C23.584 312.448 0 334.784 0 362.27200000000005c0 27.456 23.616 49.856 52.672 49.856h918.688c29.024 0 52.672-22.368 52.672-49.856-0.032-27.488-23.648-49.824-52.704-49.824zM52.672 395.456c-19.872 0-36.064-14.912-36.064-33.216s16.192-33.216 36.064-33.216h918.688c19.872 0 36.064 14.912 36.064 33.216s-16.192 33.216-36.064 33.216H52.672zM971.328 79.80799999999999H52.672C23.584 79.80799999999999 0 102.17600000000004 0 129.664c0 27.488 23.616 49.856 52.672 49.856h918.688c29.024 0 52.672-22.336 52.672-49.856-0.032-27.488-23.648-49.856-52.704-49.856zM52.672 162.91200000000003c-19.872 0-36.064-14.912-36.064-33.248 0-18.304 16.192-33.216 36.064-33.216h918.688c19.872 0 36.064 14.912 36.064 33.216 0 18.336-16.192 33.248-36.064 33.248H52.672z"  horiz-adv-x="1024" />

    
    <glyph glyph-name="icon-test141" unicode="&#59490;" d="M950.78432 0H73.12032a73.44 73.44 0 0 0-73.152 73.568V580.0319999999999a73.408 73.408 0 0 0 73.152 73.504h162.56c26.016 2.112 51.776 25.632 80.48 73.984 23.296 39.296 75.68 40.384 81.6 40.384h227.744c0.576 0.128 62.144 3.52 84.416-41.44 35.584-72.032 77.76-72.928 78.176-72.928h162.72a73.408 73.408 0 0 0 73.152-73.504v-506.464A73.472 73.472 0 0 0 950.78432 0zM398.11232 751.5840000000001c-5.536 0-49.376-0.96-68.064-32.416-31.584-53.28-61.376-79.296-93.76-81.92l-163.2-0.032c-31.36 0-56.864-25.632-56.864-57.184v-506.496c0-31.552 25.504-57.216 56.864-57.216h877.664c31.392 0 56.896 25.664 56.896 57.216V580.0319999999999c0 31.52-25.504 57.184-56.896 57.184h-162.528c-5.536 0-53.568 2.304-92.928 81.984-17.408 35.232-68.352 32.448-69.184 32.416h-227.936l-0.064-0.032z m107.296-649.664c-128.896 0-233.76 105.472-233.76 235.04s104.864 234.944 233.76 234.944 233.728-105.408 233.728-234.944c0-129.6-104.864-235.04-233.728-235.04z m0 453.632c-119.904 0-217.504-98.08-217.504-218.624 0-120.576 97.568-218.688 217.504-218.688 119.904 0 217.472 98.112 217.472 218.688 0.032 120.544-97.568 218.624-217.472 218.624z m-0.576-418.592c-108.8 0-197.344 89.024-197.344 198.4s88.544 198.336 197.344 198.336c108.768 0 197.28-88.96 197.28-198.336 0.032-109.376-88.48-198.4-197.28-198.4z m0 381.408c-100.384 0-182.048-82.112-182.048-182.976 0-100.896 81.696-183.008 182.048-183.008s182.016 82.08 182.016 183.008c0.064 100.896-81.632 182.976-182.016 182.976z m291.52-11.872a32.608 32.608 0 0 0-32.448 32.672c0 18.016 14.56 32.672 32.448 32.672a32.672 32.672 0 0 0 0-65.344z m0 49.056a16.288 16.288 0 0 1-16.16-16.32c0-9.024 7.264-16.352 16.16-16.352a16.352 16.352 0 0 1 0 32.672zM227.45632 686.24H113.72832V751.5840000000001H227.52032l-0.064-65.344z m-97.472 16.352h81.28V735.264h-81.28v-32.672z"  horiz-adv-x="1024" />

    
    <glyph glyph-name="icon-test142" unicode="&#59491;" d="M512 896C229.216 896 0 666.784 0 384s229.216-512 512-512c282.752 0 512 229.216 512 512S794.752 896 512 896zM282.88 145.76l1.28 9.216c10.304 75.968 71.232 116.608 186.208 124.224l9.568 0.864 3.296 4.864a27.68 27.68 0 0 1 7.328 16.544c0.8 7.296-0.032 57.44-27.712 66.752-61.024 20.608-73.856 78.944-73.856 124.224 0 84.896 43.68 131.648 123.04 131.648 79.328 0 123.008-46.752 123.008-131.648 0-45.312-12.8-103.616-73.856-124.192-25.824-8.704-29.12-54.592-27.744-66.752 1.312-11.616 7.232-17.056 11.936-19.584l3.872-2.464 4.768-0.32c114.688-7.68 175.488-48.32 185.792-124.192l1.28-9.216-458.208 0.032z"  horiz-adv-x="1024" />

    
    <glyph glyph-name="icon-test143" unicode="&#59492;" d="M512 384m-503.872 0a503.872 503.872 0 1 1 1007.744 0 503.872 503.872 0 1 1-1007.744 0ZM512-128C229.696-128 0 101.69600000000003 0 384S229.696 896 512 896s512-229.664 512-512c0-282.304-229.696-512-512-512zM512 879.744C238.656 879.744 16.256 657.344 16.256 384c0-273.344 222.4-495.744 495.744-495.744S1007.744 110.65599999999995 1007.744 384C1007.744 657.344 785.344 879.744 512 879.744zM741.696 145.76H283.456l1.28 9.216c10.304 75.968 71.232 116.64 186.208 124.224l9.6 0.896 3.264 4.832a27.68 27.68 0 0 1 7.328 16.544c0.8 7.296-0.032 57.44-27.712 66.784-61.024 20.608-73.856 78.912-73.856 124.224 0 84.896 43.68 131.648 123.04 131.648 79.328 0 123.008-46.752 123.008-131.648 0-45.312-12.8-103.616-73.856-124.224-25.824-8.672-29.088-54.528-27.712-66.72 1.312-11.648 7.2-17.088 11.904-19.616l3.904-2.464 4.768-0.32c114.72-7.712 175.488-48.32 185.792-124.192l1.28-9.184z m-439.328 16.224h420.448c-8.224 41.408-38.176 92.128-169.216 100.896l-8.864 0.64-6.912 4.32c-11.04 5.92-18.24 17.344-19.904 31.872-1.536 13.568 0.576 71.104 38.688 83.968 51.872 17.504 62.784 68.832 62.784 108.8 0 76.576-35.936 115.392-106.752 115.392-70.848 0-106.784-38.816-106.784-115.392 0-39.968 10.912-91.328 62.816-108.832 38.176-12.896 40.192-70.432 38.624-83.968-1.088-9.92-4.832-18.464-10.816-24.768l-6.688-10.272-17.536-1.6c-131.584-8.8-161.6-59.584-169.888-101.056z"  horiz-adv-x="1024" />

    
    <glyph glyph-name="icon-test144" unicode="&#59493;" d="M808.576-128H220.736a218.304 218.304 0 0 0-218.08 218.08V677.92A218.336 218.336 0 0 0 220.736 896h587.808a218.304 218.304 0 0 0 218.08-218.08v-587.84A218.272 218.272 0 0 0 808.576-128zM220.736 879.744A202.048 202.048 0 0 1 18.88 677.92v-587.84a202.048 202.048 0 0 1 201.856-201.856h587.808a202.048 202.048 0 0 1 201.856 201.856V677.92A202.048 202.048 0 0 1 808.544 879.744H220.736z"  horiz-adv-x="1026" />

    
    <glyph glyph-name="icon-test145" unicode="&#59494;" d="M512 896C229.248 896 0 666.752 0 384s229.248-512 512-512c282.784 0 512 229.248 512 512S794.784 896 512 896z m193.952-705.952a23.008 23.008 0 0 0-32.352 0L512 351.67999999999995l-161.632-161.632a22.912 22.912 0 0 0-32.352 32.384l161.632 161.632-161.6 161.6a22.848 22.848 0 0 0 32.32 32.352L512 416.352l161.6 161.664a22.912 22.912 0 0 0 32.352-32.352l-161.632-161.6 161.632-161.632a22.976 22.976 0 0 0 0-32.384z"  horiz-adv-x="1024" />

    
    <glyph glyph-name="icon-test146" unicode="&#59495;" d="M443.296 135.36l-1.024 0.672c-8.832 0.864-1.44 71.84 19.2 78.848 91.872 31.264 132.128 116.384 132.128 218.464 0 129.184-64.48 231.36-216.32 231.36-151.808 0-216.288-102.176-216.288-231.36 0-102.08 40.352-187.232 132.192-218.464 20.576-7.008 27.968-77.984 19.168-78.848l-0.352-0.64c-225.152-15.04-300.672-109.696-311.84-229.536A31.072 31.072 0 0 1 31.072-128H723.424a31.328 31.328 0 0 1 31.136 33.888c-11.232 119.712-86.624 214.208-311.264 229.472zM712.608 366.688l-0.992 0.608c-8.8 0.896-1.408 71.904 19.168 78.912 91.808 31.232 132.256 116.352 132.256 218.432C863.008 793.824 798.464 896 646.624 896c-136.832 0-202.56-83.136-214.24-194.144 126.4-21.792 202.656-120.512 202.656-268.576 0-108.544-42.048-191.264-115.712-235.776 0.064-0.224-8.864-4.48-9.312-16.128-0.416-10.432 12.32-14.016 14.208-14.4 67.712-11.968 123.52-33.024 166.048-63.744h302.432a31.36 31.36 0 0 1 31.168 33.952c-11.264 119.552-86.688 214.208-311.264 229.504z"  horiz-adv-x="1024" />

    
    <glyph glyph-name="icon-test147" unicode="&#59496;" d="M1026.336 7.008000000000038h-1024v736h1024v-736zM35.36 40.48000000000002h957.952V709.5360000000001H35.36v-669.056zM450.624 172.48000000000002H104.96V562.2719999999999h345.664V172.48000000000002z m-312.64 33.472h279.616v322.88H137.984v-322.88zM549.792 538.496h389.28v-33.44H549.792zM549.792 384.064h389.28v-33.408H549.792zM549.792 241.53599999999994h389.28v-33.472H549.792z"  horiz-adv-x="1026" />

    
    <glyph glyph-name="icon-test148" unicode="&#59497;" d="M963.392-25.951999999999998H60.576c-28.736 0-52.128 23.744-52.128 52.864V736a52.512 52.512 0 0 0 52.128 52.864h902.816c28.672 0 52.128-23.712 52.128-52.864v-709.088c0-29.088-23.424-52.864-52.128-52.864zM60.576 771.744A35.52 35.52 0 0 1 25.344 736v-709.088a35.52 35.52 0 0 1 35.232-35.68h902.816c19.36 0 35.264 16.032 35.264 35.68V736c0 19.712-15.872 35.744-35.264 35.744H60.576zM963.392-34.52800000000002H60.576C27.168-34.52800000000002 0-6.912000000000035 0 26.94399999999996V736c0 16.384 6.304 31.808 17.728 43.424a59.68 59.68 0 0 0 42.848 18.016h902.816C996.768 797.472 1024 769.888 1024 736v-709.088c0-33.824-27.232-61.44-60.608-61.44zM16.896 26.94399999999996c0-24.384 19.584-44.32 43.68-44.32h902.816a44.128 44.128 0 0 1 0 0.032H60.576a44.064 44.064 0 0 0-43.68 44.288zM60.576 763.2a27.04 27.04 0 0 1-26.784-27.2v-709.088c0-14.912 12-27.136 26.784-27.136h902.816c14.72 0 26.784 12.224 26.784 27.136V736a27.04 27.04 0 0 1-26.784 27.168H60.576z m-31.232 3.712c-8.032-8.32-12.448-19.296-12.448-30.912v-709.088V736c0 12.032 4.736 22.944 12.448 30.912z m31.232 13.408h902.816H60.576h-0.064 0.064z m-0.224 0zM233.088 441.696c-60.576 0-109.856 49.984-109.856 111.456s49.28 111.456 109.856 111.456c60.608 0 109.888-49.984 109.888-111.456-0.032-61.472-49.312-111.456-109.888-111.456z m0 205.76c-51.264 0-92.96-42.304-92.96-94.304s41.696-94.272 92.96-94.272c51.296 0 92.96 42.272 92.96 94.272 0 52-41.696 94.304-92.96 94.304zM233.088 433.12c-65.248 0-118.304 53.856-118.304 120 0 66.176 53.056 120.064 118.304 120.064s118.336-53.888 118.336-120.064c-0.032-66.144-53.088-120-118.336-120z m0 205.76c-46.592 0-84.544-38.464-84.544-85.728 0-47.264 37.952-85.728 84.544-85.728s84.544 38.464 84.544 85.728C317.6 600.4159999999999 279.68 638.88 233.088 638.88z m0 17.12c55.936 0 101.408-46.112 101.408-102.88 0 56.8-45.472 102.88-101.408 102.88s-101.44-46.08-101.44-102.848c0 56.768 45.504 102.848 101.44 102.848zM244.192 343.744l12.448-11.584-185.984-205.728-12.448 11.552zM71.2 114.30399999999997l-24.896 23.2 197.344 218.368 24.928-23.2-197.376-218.368z m173.472 217.344l-66.688-73.856 66.688 73.856zM248.288 348.448l166.944-147.616-11.136-12.96-166.912 147.648zM404.896 175.77599999999995L225.248 334.72l22.208 25.824 179.648-158.88-22.208-25.888z m-155.808 160.576l154.176-136.384v0.064l-154.176 136.32zM685.088 512.896l12.256-11.808-292.672-312.704-12.256 11.808zM404.928 176.35199999999998l-24.512 23.68L684.8 524.992l24.512-23.648-304.384-324.992z m-0.608 24.32l281.088 300.032-281.088-300.032zM688.704 509.6l269.184-250.848-11.456-12.608-269.152 250.816zM688.256 521.696l281.6-262.4-22.848-25.248-281.632 262.432z"  horiz-adv-x="1024" />

    
    <glyph glyph-name="icon-test149" unicode="&#59498;" d="M526.272 389.6L106.272 628 524.768 865.952l405.856-237.952-404.352-238.4zM137.824 628.0319999999999l388.32-220.416 373.792 220.384L524.64 848 137.824 628.0319999999999zM526.432 371.84000000000003L75.104 628 524.896 883.744l436.128-255.68-434.592-256.224zM168.992 628.0319999999999l356.992-202.656 343.552 202.56-345.024 202.272-355.52-202.176zM500.288-92.12800000000004L80.064 127.32799999999997V576.2239999999999l420.192-237.312v-431.04zM95.648 136.76800000000003l389.024-203.2V329.88800000000003L95.648 549.504v-412.736zM515.68-117.56799999999998L64.672 118.01599999999996V602.592l451.008-254.688v-465.472zM111.04 146.11199999999997l358.24-187.136V320.86400000000003L111.04 523.136v-377.024zM552.032-92.99199999999996l0.512 434.72 394.752 234.848 0.32-433.472-395.584-236.096z m16.032 425.856l-0.352-398.4 364.32 217.472-0.288 397.216-363.68-216.288zM536.64-120.12800000000004l0.512 470.592 425.504 253.152 0.384-469.28-426.4-254.464z m46.816 444.256L583.168-38.39999999999998l333.472 199.104-0.256 361.408-332.928-197.984z"  horiz-adv-x="1024" />

    
    <glyph glyph-name="icon-test150" unicode="&#59499;" d="M937.984 637.44l-409.28-243.04L103.616 637.44 527.136 880zM493.28-112l-425.6 224V568.4159999999999l425.6-242.08zM963.68 128.32000000000005L564.16-112l0.48 441.44 398.784 238.976z"  horiz-adv-x="1024" />

    
    <glyph glyph-name="icon-test151" unicode="&#59500;" d="M889.6 687.936c-4.928-22.336-7.456-18.016-7.84-19.744l76.96-28.704v-297.792a86.208 86.208 0 0 1-34.496 15.456c0 0.608 0.096 1.088 0.096 1.664 0 37.056-30.72 67.136-68.672 67.136s-68.768-30.08-68.768-67.136c0-12.192 3.616-23.616 9.6-33.568h-112.672c-18.944 0-34.368-15.008-34.368-33.536s15.424-33.6 34.368-33.6h34.4c0-37.12 30.752-67.168 68.704-67.168 23.232 0 43.648 11.328 56.192 28.576a85.984 85.984 0 0 1 56.832-27.84 65.312 65.312 0 0 1-9.984-34.272c0-37.12 30.816-67.2 68.736-67.2v-111.136l-255.232 74.784-25.984 7.552-24.448-11.84-312.896-152.832-274.912 134.304v159.904h61.088a103.584 103.584 0 0 1 76.416-33.568c2.144 0 4.32 0.448 6.432 0.64a98.688 98.688 0 0 1-6.432-34.176c0-55.616 46.048-100.704 103.104-100.704 44.8 0 82.592 28.128 96.768 67.168h246.816c19.04 0 34.368 14.976 34.368 33.568s-15.328 33.568-34.368 33.568h-137.44c0 37.056-30.72 67.168-68.768 67.168-12.96 0-24.928-3.744-35.36-9.888a62.72 62.72 0 0 1 0.992 9.888c0 37.056-30.752 67.2-68.672 67.2-13.824 0-26.464-4.064-37.216-10.88-10.592 44.704-51.328 78.016-100.192 78.016a103.68 103.68 0 0 1-76.416-33.632H65.248V686.496l244.128-152.704 30.784-15.008 30.688 15.008 76.672 37.472c-9.664 19.968-5.568 2.56-12.032 24.608l-95.328-52.32L48 728.1279999999999v-711.616L340.16-128l339.04 165.632 296.8-81.76V660.992l-86.4 26.944zM649.408 425.984s171.808 134.304 171.808 302.144C821.216 820.832 744.352 896 649.408 896c-94.912 0-171.776-75.136-171.776-167.872 0-167.84 171.776-302.144 171.776-302.144m-68.736 302.144c0 37.056 30.848 67.168 68.768 67.168s68.768-30.08 68.768-67.168c0-37.056-30.88-67.136-68.768-67.136-37.984 0-68.768 30.08-68.768 67.136"  horiz-adv-x="1024" />

    
    <glyph glyph-name="icon-test152" unicode="&#59501;" d="M97.152 894.144h829.696v-86.368H97.152zM104.544 305.76L512.064 681.856l407.392-376.096-52.896-57.44-354.496 327.2L157.536 248.32000000000005zM478.176 597.088h67.808v-723.264h-67.808z"  horiz-adv-x="1024" />

    
    <glyph glyph-name="icon-test153" unicode="&#59502;" d="M994.112 425.28H171.104L534.368 815.488 463.936 880 2.112 384l461.824-496 70.432 64.512L171.072 342.75199999999995h823.04z"  horiz-adv-x="1024" />

    
    <glyph glyph-name="icon-test154" unicode="&#59503;" d="M1024-26.720000000000027H300.096v209.632H1024v-209.632z m-707.392 16.32h690.88v176.928H316.608v-176.928z m-107.168-16.32H0v209.632h209.44v-209.632z m-192.896 16.32h176.384v176.928H16.544v-176.928zM1024 252.51199999999994H300.096v209.6H1024v-209.6zM316.608 268.79999999999995h690.88v176.928H316.608V268.79999999999995z m-107.168-16.288H0v209.6h209.44v-209.6zM16.544 268.79999999999995h176.384v176.928H16.544V268.79999999999995zM1024 531.6800000000001H300.096v209.6H1024v-209.6z m-707.392 16.32h690.88V724.928H316.608v-176.928z m-107.168-16.32H0v209.6h209.44v-209.6z m-192.896 16.32h176.384V724.928H16.544v-176.928z"  horiz-adv-x="1024" />

    
    <glyph glyph-name="icon-test155" unicode="&#59504;" d="M1020.768 226.08000000000004v-319.008a31.84 31.84 0 0 0-31.904-31.872 31.84 31.84 0 0 0-31.872 31.872v231.584c-87.072-157.056-254.336-263.456-446.624-263.456-260.224 0-474.496 194.88-505.984 446.592h64.48c31.04-216.352 216.576-382.816 441.504-382.816 178.08 0 331.328 104.448 403.04 255.232h-243.552a31.872 31.872 0 0 0 0 63.776h319.008c-0.064 0 31.904 2.016 31.904-31.904z m-669.888 287.104a31.904 31.904 0 1 1 0 63.84H107.168c71.648 150.784 225.12 255.168 403.232 255.168 224.896 0 410.464-166.432 441.504-382.752h64.448C984.864 701.088 770.656 896 510.4 896 318.112 896 150.848 789.5360000000001 63.84 632.512V864.064A32 32 0 0 1 31.936 896 31.968 31.968 0 0 1 0 864.064v-318.976c0-30.912 31.936-31.904 31.936-31.904h318.944z"  horiz-adv-x="1024" />

    
    <glyph glyph-name="icon-test156" unicode="&#59505;" d="M485.376-1.9519999999999982m-119.36 0a119.36 119.36 0 1 1 238.72 0 119.36 119.36 0 1 1-238.72 0ZM485.376 384m-119.36 0a119.36 119.36 0 1 1 238.72 0 119.36 119.36 0 1 1-238.72 0ZM485.376 769.92m-119.392 0a119.392 119.392 0 1 1 238.784 0 119.392 119.392 0 1 1-238.784 0Z"  horiz-adv-x="1024" />

    
    <glyph glyph-name="icon-test157" unicode="&#59506;" d="M293.56832 23.936000000000035H41.28032A41.6 41.6 0 0 0 0.00032 65.72799999999995V733.984a41.6 41.6 0 0 0 41.28 41.76h554.176l-194.304-302.464 0.896-0.576-0.96-1.6 97.152-101.28-132.704-141.216-146.016 128.704 146.08-128.736 132.64 141.28 75.264-78.496-279.936-267.424zM41.28032 759.552a25.44 25.44 0 0 1-25.28-25.568v-668.256c0-14.112 11.36-25.6 25.312-25.6h245.92l263.552 251.712-52.416 54.624-131.264-139.648-6.304 4.48-140.128 123.552-169.312-186.784-23.584 21.824 190.208 210.24 146.464-129.12 111.616 118.72-90.176 93.984-5.984 3.68 0.768 1.76-0.352 0.352 1.088 1.344 1.856 4.192 182.784 284.512H41.28032z m163.104-311.04c-61.664 0-111.872 50.752-111.872 113.152 0 62.368 50.176 113.12 111.872 113.12 61.728 0 111.872-50.752 111.872-113.12s-50.176-113.152-111.872-113.152z m0 210.112c-52.864 0-95.872-43.488-95.872-96.96 0-53.44 43.008-96.96 95.872-96.96s95.904 43.488 95.904 96.96-43.04 96.96-95.904 96.96zM715.07232 520.64l-0.128-0.128-3.328 3.136-133.568-142.144 11.168-11.616 123.264 131.2 246.208-228.736 10.848 11.936zM308.25632 561.6320000000001c0 57.92-46.624 105.056-103.904 105.056S100.48032 619.552 100.48032 561.6320000000001c0-57.92 46.624-105.056 103.904-105.056s103.872 47.136 103.872 105.056z m-103.872-88.864c-48.448 0-87.904 39.84-87.904 88.864s39.456 88.896 87.904 88.896c48.48 0 87.904-39.872 87.904-88.896s-39.424-88.864-87.904-88.864zM364.99232 239.808l-146.24 128.864-3.84-4.416-0.064 0.064-175.744-193.984 11.744-10.944 169.184 186.72 146.016-128.736 0.512 0.576h0.064l131.648 140.192-11.136 11.584zM974.68832 783.808h-296.736l-9.792-16.16h306.528c18.336 0 33.376-15.136 33.376-33.696v-668.288A33.6 33.6 0 0 0 974.68832 32H394.68832l-16.896-16.192h596.896A49.6 49.6 0 0 1 1024.00032 65.66399999999999V733.984a49.6 49.6 0 0 1-49.312 49.824z"  horiz-adv-x="1024" />

    
    <glyph glyph-name="icon-test158" unicode="&#59507;" d="M512 896C326.432 896 176 743.168 176 554.656c0-62.24 16.48-120.384 45.12-170.656l290.848-512 290.912 511.968a343.552 343.552 0 0 1 45.12 170.656C848 743.168 697.536 896 512 896z m0-455.104c-61.856 0-112.032 50.88-112.032 113.728 0 62.784 50.176 113.728 112.032 113.728 61.856 0 111.968-50.912 111.968-113.728 0-62.848-50.112-113.728-111.968-113.728z"  horiz-adv-x="1024" />

    
    <glyph glyph-name="icon-test159" unicode="&#59508;" d="M511.724397-126.01970400000005c-176.789349 0-348.851539 91.700491-443.362773 255.490154C-72.526871 373.52599 11.348257 686.796077 255.371856 827.684571c244.0236 140.920435 557.133985 57.013367 697.99054-187.074113a507.65852 507.65852 0 0 0 51.072478-387.882538 507.594639 507.594639 0 0 0-238.05077-310.331583 508.073743 508.073743 0 0 0-254.659707-68.416041m226.488396 672.43833a24.977285 24.977285 0 0 1-35.006527 0l-263.155816-261.015818-105.147342 104.253014a24.721763 24.721763 0 0 1-17.631024 7.3782 24.114898 24.114898 0 0 1-17.375503-7.3782 24.242659 24.242659 0 0 1 0-34.687124l122.682545-121.884039c9.677899-9.582079 25.328628-9.582079 35.070408 0l280.563259 278.487142a24.40236 24.40236 0 0 1 7.218499 17.407443 24.881464 24.881464 0 0 1-7.218499 17.439382"  horiz-adv-x="1024" />

    
    </font>
</defs>
</svg>
